<?xml version="1.0" standalone="no"?>
<!DOCTYPE svg PUBLIC "-//W3C//DTD SVG 1.1//EN" "http://www.w3.org/Graphics/SVG/1.1/DTD/svg11.dtd" >
<svg xmlns="http://www.w3.org/2000/svg">
<metadata>
Created by FontForge 20120731 at Wed Apr 19 10:02:01 2017
 By admin
</metadata>
<defs>
<font id="iconfont" horiz-adv-x="1024" >
  <font-face 
    font-family="iconfont"
    font-weight="500"
    font-stretch="normal"
    units-per-em="1024"
    panose-1="2 0 6 3 0 0 0 0 0 0"
    ascent="896"
    descent="-128"
    x-height="792"
    bbox="-0.58209 -128 1238 896.836"
    underline-thickness="0"
    underline-position="0"
    unicode-range="U+0078-E69C"
  />
<missing-glyph 
 />
    <glyph glyph-name=".notdef" 
 />
    <glyph glyph-name=".notdef" 
 />
    <glyph glyph-name=".null" horiz-adv-x="0" 
 />
    <glyph glyph-name="nonmarkingreturn" horiz-adv-x="341" 
 />
    <glyph glyph-name="x" unicode="x" horiz-adv-x="1001" 
d="M281 543q-27 -1 -53 -1h-83q-18 0 -36.5 -6t-32.5 -18.5t-23 -32t-9 -45.5v-76h912v41q0 16 -0.5 30t-0.5 18q0 13 -5 29t-17 29.5t-31.5 22.5t-49.5 9h-133v-97h-438v97zM955 310v-52q0 -23 0.5 -52t0.5 -58t-10.5 -47.5t-26 -30t-33 -16t-31.5 -4.5q-14 -1 -29.5 -0.5
t-29.5 0.5h-32l-45 128h-439l-44 -128h-29h-34q-20 0 -45 1q-25 0 -41 9.5t-25.5 23t-13.5 29.5t-4 30v167h911zM163 247q-12 0 -21 -8.5t-9 -21.5t9 -21.5t21 -8.5q13 0 22 8.5t9 21.5t-9 21.5t-22 8.5zM316 123q-8 -26 -14 -48q-5 -19 -10.5 -37t-7.5 -25t-3 -15t1 -14.5
t9.5 -10.5t21.5 -4h37h67h81h80h64h36q23 0 34 12t2 38q-5 13 -9.5 30.5t-9.5 34.5q-5 19 -11 39h-368zM336 498v228q0 11 2.5 23t10 21.5t20.5 15.5t34 6h188q31 0 51.5 -14.5t20.5 -52.5v-227h-327z" />
    <glyph glyph-name="buoumaotubiao01" unicode="&#xe600;" 
d="M861 -85h-632q-10 0 -16.5 6.5t-6.5 16.5t6.5 16.5t16.5 6.5h632q29 0 49.5 20.5t20.5 49.5v698q0 29 -20.5 49.5t-49.5 20.5h-698q-29 0 -49.5 -20.5t-20.5 -49.5v-768q0 -9 -6.5 -16t-16.5 -7t-16.5 7t-6.5 16v768q0 48 34 82.5t82 34.5h698q48 0 82.5 -34.5
t34.5 -82.5v-698q0 -48 -34.5 -82t-82.5 -34zM512 380q-108 0 -184.5 76.5t-76.5 184.5q0 10 6.5 17t16.5 7t16.5 -7t6.5 -17q0 -88 63 -151t152 -63t152 63t63 151q0 10 7 17t16.5 7t16 -7t6.5 -17q1 -108 -76 -184.5t-185 -76.5z" />
    <glyph glyph-name="buoumaotubiao02" unicode="&#xe601;" 
d="M866 555h-708q-10 0 -17 6.5t-7 16t7 16.5t17 7h708q10 0 17 -7t7 -16.5t-7 -16t-17 -6.5zM622 359h-464q-10 0 -17 7t-7 16.5t7 16.5t17 7h464q10 0 16.5 -7t6.5 -16.5t-6.5 -16.5t-16.5 -7zM903 90h-409q-10 0 -17 7t-7 16.5t7 16.5t17 7h409q31 0 52.5 22t21.5 52v538
q0 31 -21.5 52.5t-52.5 21.5h-782q-31 0 -52.5 -21.5t-21.5 -52.5v-538q0 -30 21.5 -52t52.5 -22h159q9 0 16 -7t7 -16.5t-7 -16.5t-16 -7h-159q-50 0 -85.5 35.5t-35.5 85.5v538q0 50 35.5 85.5t85.5 35.5h782q50 0 85.5 -35.5t35.5 -85.5v-538q0 -50 -35.5 -85.5
t-85.5 -35.5zM293.5 -110q-9.5 0 -16.5 7t-7 16.5t7 16.5l200 200q7 7 16.5 7t16.5 -7t7 -16.5t-7 -16.5l-200 -200q-7 -7 -16.5 -7z" />
    <glyph glyph-name="buoumaotubiao03" unicode="&#xe602;" 
d="M502.5 375q-105.5 0 -180 74.5t-74.5 180t74.5 180t180 74.5t180 -74.5t74.5 -180t-74.5 -180t-180 -74.5zM502 838q-86 0 -147 -61t-61 -147t61 -147t147 -61t147 61t61 147t-61 147t-147 61zM918.5 -31q-9.5 0 -16.5 6.5t-7 16.5q0 104 -51.5 192t-139.5 139.5
t-192 51.5t-192 -51.5t-139.5 -139.5t-51.5 -192q0 -10 -7 -16.5t-16.5 -6.5t-16.5 6.5t-7 16.5q0 116 58 215t156.5 157t215 58t215.5 -58t157 -157t58 -215q0 -10 -7 -16.5t-16.5 -6.5zM828 -116h-564q-9 0 -16 6.5t-7 16.5t7 16.5t16 6.5h564q28 0 47.5 19.5t19.5 47.5
q0 10 7 16.5t16.5 6.5t16.5 -6.5t7 -16.5q0 -47 -33.5 -80t-80.5 -33zM114 -112q-9 0 -15.5 5.5t-7.5 13.5q-9 42 -9 85q0 116 58 215t157 157t215.5 58t215 -58t156.5 -157t58 -215q0 -10 -7 -16.5t-16.5 -6.5t-16.5 6.5t-7 16.5q0 104 -51.5 192t-139.5 139.5t-192 51.5
t-192 -51.5t-139.5 -139.5t-51.5 -192q0 -39 7 -76q2 -9 -3 -17t-15 -10q-2 -1 -4 -1z" />
    <glyph glyph-name="buoumaotubiao04" unicode="&#xe603;" 
d="M249.5 572q-9.5 0 -16.5 7q-12 12 -25.5 27.5t-34.5 42t-33.5 54.5t-10.5 49q2 24 22 38q60 40 90 70q7 6 16.5 6t16.5 -7t6.5 -17t-7.5 -16q-41 -38 -96 -75q-2 -1 -2 -4q-2 -19 27.5 -60.5t63.5 -75.5q6 -6 6 -16t-6.5 -16.5t-16 -6.5zM803.5 579q-9.5 0 -16.5 6.5
t-7 16.5t7 16q34 34 63 75.5t28 60.5q-1 3 -3 4q-56 38 -88 68q-7 6 -7.5 15.5t6 17t16 7.5t16.5 -6q39 -34 83 -64q20 -13 23 -38q2 -20 -10.5 -48t-33.5 -55t-34.5 -42.5t-25.5 -27.5q-7 -6 -16.5 -6zM526 765q-101 0 -165 51q-8 6 -9 15.5t5 17t15.5 9t17.5 -4.5
q52 -41 136 -41q90 0 141 44q8 6 17.5 5.5t16 -8t5.5 -17t-8 -15.5q-65 -56 -172 -56zM375 811q-9 0 -15 6q-16 15 -29 21t-25 3.5t-18.5 -6t-19.5 -13.5l-6 -4q-7 -6 -17 -4.5t-15.5 9t-4 17t9.5 15.5l5 4q15 12 26 17.5t31.5 11t44 -3.5t49.5 -32q7 -7 7.5 -16.5
t-5.5 -16.5q-7 -8 -18 -8zM810 813q-8 0 -15 6q-16 14 -29 20.5t-24.5 4t-18.5 -6.5t-20 -13l-6 -5q-7 -6 -16.5 -4.5t-15.5 9.5t-4.5 17.5t9.5 14.5l5 5q15 11 26 17t31.5 11.5t44 -4t49.5 -32.5q7 -7 7.5 -16.5t-5.5 -16.5q-7 -7 -18 -7zM154 -60q-20 0 -35 9
q-29 17 -34 60q-4 34 19 79t64 90t74 77t69 61q23 19 37 39t18.5 33t4 25.5t-2 17t-2.5 6.5l-2 3l-78 186q-4 8 -0.5 17t12.5 13t18 0.5t13 -12.5l78 -185q5 -9 7.5 -22t2 -38t-19.5 -56.5t-57 -62.5q-98 -82 -155.5 -155t-53.5 -110q3 -21 11 -26q14 -8 51 9l20 -43
q-35 -15 -59 -15zM510 -128q-35 0 -74.5 15.5t-55 25.5t-25.5 18q-7 6 -8 15.5t5 17t15.5 9t16.5 -4.5q5 -4 14 -10t33.5 -18t47 -17.5t51 -1t49.5 24.5q28 25 67 40t71 19t66.5 2.5t48.5 -4t22 -4.5l5 -1q37 -17 51 -9q9 5 12 26q4 37 -53.5 110t-156.5 155
q-37 31 -56.5 62.5t-19.5 56.5t2.5 38t7.5 22l78 185q4 9 13 12.5t18 -0.5t12.5 -13t-0.5 -18l-80 -188q-2 -3 -3.5 -7t-1.5 -16.5t4 -25.5t18.5 -33t37.5 -39q35 -29 68.5 -61t74.5 -77t64 -90t19 -79q-5 -43 -35 -60q-34 -20 -91 5q-14 3 -34.5 5t-57.5 2t-75 -12.5
t-64 -36.5q-43 -40 -101 -40zM803 579q-6 0 -11 3l-58 32q-8 5 -10.5 14.5t2 17.5t14 11t17.5 -2l58 -33q8 -5 10.5 -14t-1.5 -17q-7 -12 -21 -12zM249 572q-12 0 -19 9q-5 8 -3.5 17.5t8.5 15.5l55 39q7 6 16.5 4.5t15.5 -9t4.5 -17.5t-9.5 -15l-54 -40q-6 -4 -14 -4z" />
    <glyph glyph-name="buoumaotubiao05" unicode="&#xe604;" horiz-adv-x="1030" 
d="M771 -116h-60q-29 0 -50 25.5t-21 54.5v159q0 13 -15 37t-24 27h-163q-7 -1 -19 -18t-12 -29v-183q0 -28 -23.5 -50.5t-52.5 -22.5h-72q-29 0 -57 31t-28 59v351q0 9 -9 16.5t-20 7.5h-71q-56 0 -70.5 35t25.5 74l396 400q36 35 87 35v0q50 0 86 -35l397 -400
q40 -39 25.5 -74t-71.5 -35q-9 0 -16 6.5t-7 16.5t7 16.5t16 6.5q24 0 28 7q2 7 -15 24l-397 399q-21 21 -53 21t-54 -21l-396 -399q-18 -18 -16 -25q4 -6 28 -6l71 1q30 0 53 -21.5t23 -49.5v-351q0 -11 15 -27t23 -16h72q10 0 20 8.5t10 17.5v183q0 29 24 61t53 32h164
q30 0 57 -41t27 -69v-159q0 -11 8.5 -22t16.5 -11h60q10 0 21 9.5t11 18.5v367q0 10 6.5 16.5t16.5 6.5t16.5 -6.5t6.5 -16.5v-367q0 -28 -24 -51.5t-54 -23.5z" />
    <glyph glyph-name="buoumaotubiao06" unicode="&#xe605;" horiz-adv-x="1025" 
d="M659 -96q-39 0 -64 27q-17 19 -42.5 36t-43.5 17t-43.5 -17.5t-41.5 -34.5q-17 -19 -44.5 -24.5t-51.5 4.5l-3 2l-123 69q-23 16 -31 44t4 54q9 21 9 39q0 43 -30.5 73.5t-73.5 30.5h-4v0q-24 0 -42 17.5t-23 46.5q-11 58 -11 100t11 100q5 30 22.5 47.5t41.5 17.5h5
q43 0 73.5 30.5t30.5 73.5q0 18 -9 39q-12 26 -4 54t31 44l4 2l128 71q27 10 53 4.5t44 -24.5q16 -17 41 -33t42.5 -16t42 15.5t41.5 32.5q17 18 44.5 23.5t50.5 -4.5l3 -1l125 -70q24 -16 32 -44.5t-4 -53.5q-9 -21 -9 -39q0 -43 30.5 -73.5t73.5 -30.5h4v0q24 0 42 -17.5
t23 -47.5q11 -58 11 -100q0 -43 -11 -100q-5 -29 -22.5 -46.5t-41.5 -17.5h-5q-43 0 -73.5 -30.5t-30.5 -73.5q0 -18 9 -40q12 -25 4 -53t-31 -44l-4 -2l-127 -71q-15 -6 -32 -6zM509.5 30q25.5 0 56.5 -18t43.5 -29.5t19.5 -19.5q8 -9 20.5 -11.5t22.5 1.5l123 68
q10 7 13 19t-1 22q-14 31 -14 58q0 62 44.5 106t106.5 44h4v0q15 0 20 27q9 54 9 91q0 39 -9 92q-5 26 -19 26h-5q-62 0 -106.5 44t-44.5 107q0 32 14 59q4 9 1 21t-13 19l-120 67q-26 10 -44 -9q-8 -8 -19.5 -18.5t-42 -27t-55 -16.5t-55 17t-42.5 27.5t-20 18.5t-20.5 11
t-22.5 -2l-125 -68q-10 -8 -13 -19.5t1 -21.5q1 -2 4 -9.5t6.5 -22t3.5 -26.5q0 -63 -44.5 -107t-106.5 -44h-4v0q-15 0 -20 -26q-9 -53 -9 -91.5t9 -91.5q5 -27 19 -27h5q62 0 106.5 -44t44.5 -106q0 -30 -14 -58q-4 -11 -1 -22.5t13 -18.5l118 -66q25 -11 43 9
q7 7 19 18.5t43.5 29.5t57 18zM512 196q-80 0 -136.5 56.5t-56.5 136t56.5 136t136.5 56.5t136 -56.5t56 -136t-56 -136t-136 -56.5zM512 535q-60 0 -103 -43t-43 -103.5t43 -103t103 -42.5t103 42.5t43 103t-43 103.5t-103 43z" />
    <glyph glyph-name="buoumaotubiao07" unicode="&#xe606;" horiz-adv-x="1028" 
d="M515.5 849q94.5 0 181 -36.5t149 -99t99 -148.5t36.5 -181t-36.5 -181t-99 -148.5t-149 -99t-181 -36.5t-180.5 36.5t-148.5 99t-99 148.5t-36.5 181t36.5 181t99 148.5t148.5 99t180.5 36.5zM516 896q-104 0 -199 -40.5t-163.5 -109t-109 -163.5t-40.5 -199t40.5 -199
t109 -163.5t163.5 -109t199 -40.5t199 40.5t163.5 109t109 163.5t40.5 199t-40.5 199t-109 163.5t-163.5 109t-199 40.5v0zM404 113q-13 0 -20 12l-186 300q-5 8 -2.5 17.5t10.5 14.5t17.5 3t14.5 -10l186 -301q5 -8 2.5 -17.5t-10.5 -14.5q-6 -4 -12 -4zM404 113
q-11 0 -18 8q-6 7 -5.5 17t7.5 16l395 355q7 6 17 5.5t16 -7.5t5.5 -16.5t-7.5 -16.5l-395 -355q-6 -6 -15 -6z" />
    <glyph glyph-name="buoumaotubiao08" unicode="&#xe607;" 
d="M512 848q94 0 180 -37t148.5 -99.5t99.5 -148.5t37 -180t-37 -180t-99.5 -148.5t-148.5 -99.5t-180 -37t-180 37t-148.5 99.5t-99.5 148.5t-37 180t37 180t99.5 148.5t148.5 99.5t180 37zM512 894q-104 0 -198.5 -40.5t-163 -109t-109 -163t-40.5 -198.5t40.5 -198.5
t109 -163t163 -109t198.5 -40.5t198.5 40.5t163 109t109 163t40.5 198.5t-40.5 198.5t-109 163t-163 109t-198.5 40.5v0zM737 358q-9 0 -15 5l-294 248q-7 6 -8 15.5t5 17t15.5 8.5t17.5 -6l294 -247q7 -6 8 -16t-5 -17q-7 -8 -18 -8zM443 110q-11 0 -18 8q-6 8 -5 17.5
t8 15.5l294 248q7 6 17 5t16 -8t5 -17t-8 -16l-294 -247q-7 -6 -15 -6z" />
    <glyph glyph-name="buoumaotubiao09" unicode="&#xe608;" 
d="M512 850q94 0 180 -37t148 -99t98.5 -148t36.5 -180t-36.5 -179.5t-98.5 -148t-148 -99t-180 -36.5t-180 36.5t-148 99t-98.5 148t-36.5 179.5t36.5 180t98.5 148t148 99t180 37zM512 896q-104 0 -198 -40.5t-162.5 -108.5t-109 -162.5t-40.5 -198t40.5 -198t109 -163
t162.5 -108.5t198 -40t198 40t162.5 108.5t109 163t40.5 198t-40.5 198t-109 162.5t-162.5 108.5t-198 40.5v0zM581 118q-9 0 -15 6l-293 247q-8 6 -8.5 15.5t5.5 17t15.5 8t17.5 -5.5l293 -247q7 -6 8 -15.5t-5 -17.5q-7 -8 -18 -8zM288 365q-11 0 -18 8q-6 8 -5.5 17.5
t8.5 15.5l293 247q7 6 16.5 5t16 -8t5.5 -16.5t-8 -15.5l-294 -247q-6 -6 -14 -6z" />
    <glyph glyph-name="buoumaotubiao10" unicode="&#xe609;" 
d="M791 458h-562q-9 0 -16 7t-7 16.5t7 16.5t16 7h562q9 0 16 -7t7 -16.5t-7 -16.5t-16 -7zM561 263h-332q-9 0 -16 7t-7 16.5t7 16.5t16 7h332q10 0 16.5 -7t6.5 -16.5t-6.5 -16.5t-16.5 -7zM512 849q93 0 178 -35t151 -101l2 -2q65 -66 99.5 -150.5t34.5 -176.5
q0 -75 -22 -144q-22 -65 -60 -120l-8 -12v-15v-174h-375q-93 0 -178 35t-151 101l-9 8q-62 65 -94.5 148t-32.5 173q0 93 35 178t101 150l9 10q65 62 147.5 94.5t172.5 32.5v0zM512 896q-104 0 -197.5 -39.5t-164.5 -110.5v-1q-71 -70 -110.5 -163.5t-39.5 -197.5
t39.5 -197.5t110.5 -164.5v0q71 -71 164.5 -110.5t197.5 -39.5h381h1q16 0 27.5 11.5t11.5 27.5v182q43 61 66 132q25 76 25 159q0 103 -39 196t-109 164l-2 2q-71 71 -164.5 110.5t-197.5 39.5v0v0z" />
    <glyph glyph-name="buoumaotubiao11" unicode="&#xe60a;" 
d="M512 849q93 0 178 -35t151 -101t101 -151t35 -178t-35 -178t-101 -151t-151 -101t-178 -35t-178 35t-151 101t-101 151t-35 178t35 178t101 151t151 101t178 35zM512 895q-100 0 -194 -38t-168 -111q-98 -99 -133 -230.5t0 -263.5t133 -230q74 -74 168 -112t194 -38
t194 38t168 112q98 98 133 230t0 263.5t-133 230.5q-74 73 -168 111t-194 38v0zM814 360v0h-604q-10 0 -16.5 7t-6.5 16.5t6.5 16.5t16.5 7v0h604q10 0 16.5 -7t6.5 -16.5t-6.5 -16.5t-16.5 -7zM512 58q-10 0 -16.5 7t-6.5 17v604q0 9 6.5 16t16.5 7t16.5 -7t6.5 -16v-604
q0 -10 -6.5 -17t-16.5 -7z" />
    <glyph glyph-name="buoumaotubiao12" unicode="&#xe60b;" 
d="M954 0h-884q-28 0 -48.5 20.5t-20.5 49.5v582q0 29 20.5 49t48.5 20h884q29 0 49.5 -20t20.5 -49v-582q0 -29 -20.5 -49.5t-49.5 -20.5zM70 675q-9 0 -16 -7t-7 -16v-582q0 -10 7 -16.5t16 -6.5h884q10 0 16.5 6.5t6.5 16.5v582q0 9 -6.5 16t-16.5 7h-884zM537 268
q-9 0 -16 6.5t-7 16t6 16.5l395 407q7 7 16.5 7.5t16.5 -6.5t7 -16.5t-7 -16.5l-394 -407q-7 -7 -17 -7zM537 268q-9 0 -15 5l-315 272q-8 6 -8.5 15.5t5.5 17t16 8t17 -5.5l315 -271q8 -7 8.5 -16.5t-5.5 -16.5q-7 -8 -18 -8z" />
    <glyph glyph-name="buoumaotubiao13" unicode="&#xe60c;" 
d="M433 28q-117 0 -216.5 58t-157.5 157.5t-58 216.5t58 216.5t157.5 157t216.5 57.5t216.5 -57.5t157.5 -157t58 -216.5q0 -75 -25 -144q-32 -92 -101 -161q-61 -62 -140 -94.5t-166 -32.5zM432.5 845q-104.5 0 -193 -51.5t-140 -140.5t-51.5 -193.5t51.5 -193t140 -140.5
t193.5 -52q77 0 147.5 29.5t125.5 84.5q61 61 90 143q22 62 22 129q0 104 -51.5 193t-140.5 140.5t-193.5 51.5zM242.5 301q-9.5 0 -16.5 7q-63 63 -63 152t63 151q7 7 16.5 7t16.5 -7t7 -16.5t-7 -16.5q-49 -49 -49 -118.5t49 -118.5q7 -7 7 -16.5t-7 -16.5t-16.5 -7z
M999.5 -123q-9.5 0 -16.5 6l-274 275q-7 7 -7 16.5t7 16t16.5 6.5t16.5 -6l274 -275q7 -7 7 -16.5t-7 -16t-16.5 -6.5z" />
    <glyph glyph-name="buoumaotubiao14" unicode="&#xe60d;" 
d="M314 549q-27 0 -46.5 -19.5t-19.5 -47t19.5 -46.5t46.5 -19t46.5 19t19.5 46.5t-19.5 47t-46.5 19.5v0v0zM512 549q-27 0 -46.5 -19.5t-19.5 -47t19.5 -46.5t46.5 -19t46.5 19t19.5 46.5t-19.5 47t-46.5 19.5v0v0zM710 549q-27 0 -46.5 -19.5t-19.5 -47t19.5 -46.5
t46.5 -19t46.5 19t19.5 46.5t-19.5 47t-46.5 19.5v0v0zM512 20q-10 0 -16.5 7t-6.5 16.5t6.5 16.5t16.5 7q126 0 232.5 52t168.5 142t62 195.5t-62 195t-168.5 142t-232.5 52.5t-232.5 -52.5t-168.5 -142t-62 -195.5q0 -97 54.5 -183t151.5 -141q9 -5 11.5 -14t-2.5 -17.5
t-14 -11t-18 2.5q-108 60 -168.5 157t-60.5 207q0 89 40 169.5t108.5 139t163 93t197.5 34.5t197.5 -34.5t163 -93t108.5 -139t40 -169t-40 -169.5t-108.5 -139t-163 -93t-197.5 -35zM261 -128l38 197q2 9 10 14.5t17.5 3.5t15 -10t3.5 -17l-19 -97l174 101q9 5 18 2.5
t14 -11t2.5 -18t-10.5 -13.5z" />
    <glyph glyph-name="buoumaotubiao15" unicode="&#xe60e;" horiz-adv-x="1025" 
d="M310 797v0q31 0 62 -8q59 -16 110 -58l30 -25l30 25q52 42 110 58q30 8 61 8q38 0 76 -12q61 -20 109 -66q47 -46 67 -107l3 -8q18 -63 2 -124q-17 -63 -69 -118l-2 -1l-3 -3l-384 -383l-386 385q-54 54 -72 121q-17 64 5 131q20 61 67 107q49 47 110 66q37 12 74 12z
M310 843q-45 0 -88 -14q-72 -22 -128 -77q-56 -54 -80 -126q-26 -80 -5 -158t85 -141l390 -390q12 -12 28 -12t27 11l390 389l2 2q63 64 84 141q21 78 -5 158h-1q-24 72 -78 126q-56 54 -128 77q-45 14 -90 14q-37 0 -73 -9q-68 -18 -128 -67q-59 49 -128 67q-36 9 -74 9v0z
" />
    <glyph glyph-name="buoumaotubiao16" unicode="&#xe60f;" 
d="M94 327q-64 63 -85 141t5 158q24 72 80 126q56 55 128 77q80 26 162 5q69 -18 128 -67q60 49 128 67q81 21 163 -5q72 -23 128 -77q54 -54 78 -125h1q26 -81 5 -158q-21 -78 -84 -142l-2 -2l-390 -389q-11 -12 -27 -11.5t-28 12.5zM310 797v0q31 0 62 -8q59 -16 110 -58
l30 -25l30 25q52 42 109 58q31 8 62 8q38 0 76 -12q61 -20 109 -66q47 -46 67 -107l3 -8q18 -63 2 -124q-17 -63 -69 -118l-2 -1l-3 -3l-384 -383l-386 385q-54 54 -72 121q-17 64 5 131q20 61 67 107q49 47 110 66q37 12 74 12zM310 843q-45 0 -88 -14q-72 -22 -128 -77
q-56 -54 -80 -126q-26 -80 -5 -158t85 -141l390 -390q12 -12 28 -12t27 11l390 389l2 2q63 64 84 141q21 78 -5 158h-1q-24 72 -78 126q-56 54 -128 77q-45 14 -90 14q-37 0 -73 -9q-68 -18 -128 -67q-59 49 -128 67q-36 9 -74 9v0z" />
    <glyph glyph-name="buoumaotubiao18" unicode="&#xe610;" 
d="M908 294q-17 0 -22 16q-3 9 1.5 17.5t14.5 11.5q27 9 40 20t12 21t-2 21q-1 5 -2 7q-1 7 -2.5 10.5t-6 10t-14.5 10t-25 6.5t-40.5 3t-58.5 -4q-71 -7 -112 31q-19 18 -29.5 45.5t-11.5 40t-1 20.5l1 3q5 30 9 68.5t0.5 89t-17.5 78.5q-12 22 -39 28t-49 -6
q-43 -19 -28 -60q55 -146 -81 -305q-23 -27 -52 -46t-52.5 -26.5t-46.5 -12.5t-34.5 -3.5t-14.5 0.5h-111q-10 0 -16.5 7t-6.5 16.5t6.5 16t16.5 6.5h113q3 2 12 0.5t28 3t38 10.5t42.5 21.5t41.5 36.5q118 138 74 258q-14 37 0.5 70t51.5 50q36 19 81.5 7.5t66.5 -51.5
q15 -28 21 -70.5t3 -85.5t-5.5 -66.5t-5.5 -40.5q0 -45 27 -69q25 -24 75 -19q47 7 81 4t55 -8.5t34.5 -17.5t19 -24t8.5 -28l1 -5q3 -11 4 -18.5t-1.5 -23.5t-10 -27.5t-26.5 -25t-48 -21.5q-3 -1 -7 -1zM857 7q-33 0 -59 17q-9 4 -11.5 13.5t2.5 18t14.5 11t17.5 -2.5
q29 -17 52 -7q22 8 32 46q6 14 1.5 26t-9 20t-14 14t-13.5 8t-8 3q-9 3 -13.5 11.5t-1.5 17.5t11.5 13.5t17.5 1.5q15 -5 29.5 -14t28.5 -25.5t18 -38t-2 -50.5q-17 -59 -60 -76q-15 -7 -33 -7zM914 167q-25 0 -50 6q-10 3 -15 11t-2.5 17.5t11 14.5t17.5 3q18 -5 37 -5.5
t30 5.5q3 2 4 7q3 44 -14 60q-11 10 -24 8q-10 -1 -17.5 5t-8.5 15.5t4.5 17t15.5 8.5q34 5 62 -20q33 -31 28 -97q-2 -26 -22 -41t-56 -15zM805 -128q-17 0 -31 4l-295 11q-13 2 -35.5 5t-69 17t-75.5 33q-48 30 -155 6q-5 -1 -7 -1q-9 -2 -17 4t-9.5 15.5t4.5 17.5t15 9
l4 1q126 28 190 -13q55 -36 159 -47l301 -13q5 -1 12.5 -1.5t22 0.5t27.5 11.5t20 29.5q7 17 0 29q-7 13 -27.5 21t-36.5 10q-9 1 -15 9t-4.5 17.5t9 15.5t16.5 4q11 -1 24.5 -4.5t38 -16.5t35.5 -33q19 -30 4 -69q-28 -72 -105 -72zM125 -54q-20 0 -34 12q-23 19 -23 54
v361q0 29 20.5 45t44.5 17q9 1 16.5 -5.5t8 -16t-6 -16.5t-16.5 -8q-20 -2 -20 -16v-361q0 -14 6 -19q2 -2 8 0q10 2 18 -3.5t10 -15t-3.5 -17.5t-15.5 -10q-7 -1 -13 -1z" />
    <glyph glyph-name="buoumaotubiao19" unicode="&#xe611;" 
d="M697 -92v0q-10 0 -16.5 7t-6.5 16l1 880q0 10 7 16.5t17 6.5v0q9 0 16 -6.5t7 -16.5l-2 -880q0 -10 -6.5 -16.5t-16.5 -6.5zM697 -92q-6 0 -11 3l-394 209q-9 5 -11.5 14t2 17.5t13.5 11.5t18 -2l394 -209q8 -5 11 -14t-2 -18q-6 -12 -20 -12zM285 591q-14 0 -21 13
q-4 9 -0.5 18t11.5 13l414 197q8 4 17 1t13.5 -12t1 -18t-11.5 -13l-414 -197q-4 -2 -10 -2zM862 84q-12 0 -19 10q-6 7 -4.5 16.5t9.5 15.5q61 43 95 108.5t34 139t-34 139.5t-95 108q-8 6 -9.5 15.5t4 17t15 9.5t17.5 -4q70 -49 109.5 -124.5t39.5 -161t-39.5 -161
t-109.5 -124.5q-6 -4 -13 -4zM177 117h-60q-49 0 -83 34.5t-34 82.5v287q0 48 34 82t83 34h167q10 0 17 -6.5t7 -16t-7 -16.5t-17 -7h-167q-29 0 -49.5 -20.5t-20.5 -49.5v-287q0 -29 20.5 -49.5t49.5 -20.5h60q10 0 17 -7t7 -16.5t-7 -16.5t-17 -7z" />
    <glyph glyph-name="buoumaotubiao20" unicode="&#xe612;" horiz-adv-x="1026" 
d="M512 849q95 0 181 -36.5t148.5 -99t99 -148.5t36.5 -181t-36.5 -181t-99 -148.5t-148.5 -99t-181 -36.5t-181 36.5t-148.5 99t-99 148.5t-36.5 181t36.5 181t99 148.5t148.5 99t181 36.5zM512 896q-104 0 -199 -40.5t-163.5 -109t-109 -163.5t-40.5 -199t40.5 -199
t109 -163.5t163.5 -109t199 -40.5t199 40.5t163.5 109t109 163.5t40.5 199t-40.5 199t-109 163.5t-163.5 109t-199 40.5v0zM725.5 147q-9.5 0 -16.5 7l-427 427q-7 7 -7 16.5t7 16.5t16.5 7t16.5 -7l427 -427q7 -7 7 -16.5t-7 -16.5t-16.5 -7zM298.5 147q-9.5 0 -16.5 7
t-7 16.5t7 16.5l427 427q7 7 16.5 7t16.5 -7t7 -16.5t-7 -16.5l-427 -427q-7 -7 -16.5 -7z" />
    <glyph glyph-name="buoumaotubiao21" unicode="&#xe613;" 
d="M512 849q95 0 181 -36.5t148.5 -99t99 -148.5t36.5 -181t-36.5 -181t-99 -148.5t-148.5 -99t-181 -36.5t-181 36.5t-148.5 99t-99 148.5t-36.5 181t36.5 181t99 148.5t148.5 99t181 36.5zM512 896q-139 0 -257 -68.5t-186.5 -186.5t-68.5 -257t68.5 -257t186.5 -186.5
t257 -68.5t257 68.5t186.5 186.5t68.5 257t-68.5 257t-186.5 186.5t-257 68.5v0zM514.5 274q-14.5 0 -24.5 10t-10 25v302q0 15 10 25t24.5 10t25 -10t10.5 -25v-302q0 -15 -10.5 -25t-25 -10zM524 70q-24 0 -42 17q-17 17 -17 41t17 41q17 16 42 16t41 -16q17 -17 17 -41
t-17 -41t-41 -17z" />
    <glyph glyph-name="buoumaotubiao23" unicode="&#xe615;" 
d="M524 -128h-24l-7 10q-32 46 -80 116.5t-128.5 195t-97.5 161.5q-27 64 -35 95.5t-8 77.5q0 100 49 185t134 134t185 49t184.5 -49.5t134 -134t49.5 -184.5q0 -46 -8 -77.5t-35 -95.5q-36 -82 -306 -473zM513 849q-88 0 -162 -43t-117 -116.5t-43 -161.5q0 -42 6.5 -68
t32.5 -86q31 -72 282 -438q250 365 282 438q26 60 32.5 86t6.5 68q0 87 -43 161t-116.5 117t-160.5 43zM512 331q-70 0 -120 49.5t-50 120t50 120.5t120 50t120 -50t50 -120.5t-50 -120t-120 -49.5zM512 624q-51 0 -87.5 -36t-36.5 -87t36.5 -87.5t87.5 -36.5t87.5 36.5
t36.5 87.5t-36.5 87t-87.5 36z" />
    <glyph glyph-name="buoumaotubiao24" unicode="&#xe616;" 
d="M512 822q92 0 175.5 -36t144 -96.5t96.5 -144.5t36 -175.5t-36 -175.5t-96.5 -144.5t-144 -96.5t-175.5 -36q-130 0 -240 69q-99 63 -155.5 164.5t-56.5 218.5q0 92 36 176t96.5 144.5t144 96.5t175.5 36zM512 867q-101 0 -193 -39.5t-159 -106t-106 -158.5t-39 -194
q0 -131 63 -242.5t170 -178.5q121 -76 264 -76q101 0 193 39.5t159 106t106 158.5t39 193.5t-39 193.5t-106 158.5t-159 106t-193 39.5v0zM503.5 347q-9.5 0 -16 6.5t-6.5 15.5v260q0 10 6.5 16.5t16 6.5t16 -6.5t6.5 -16.5v-260q0 -9 -6.5 -15.5t-16 -6.5zM840 347h-336
q-10 0 -16.5 6.5t-6.5 16t6.5 16t16.5 6.5h336q9 0 15.5 -6.5t6.5 -16t-6.5 -16t-15.5 -6.5z" />
    <glyph glyph-name="buoumaotubiao25" unicode="&#xe617;" 
d="M899 -110h-629q-48 0 -82 34t-34 82v629q0 48 34 82t82 34h629q48 0 82 -34t34 -82v-629q0 -48 -34 -82t-82 -34zM270 705q-29 0 -49 -20.5t-20 -49.5v-629q0 -28 20 -48.5t49 -20.5h629q29 0 49.5 20.5t20.5 48.5v629q0 29 -20.5 49.5t-49.5 20.5h-629zM131 12
q-51 0 -84 33.5t-33 82.5v628q0 49 38.5 80t87.5 31h628q49 0 81.5 -32t32.5 -84h-46q0 34 -19 52t-49 18h-628q-31 0 -55 -18.5t-24 -46.5v-628q0 -30 18 -50t52 -20v-46zM270 518h605v-46h-605v46zM270 286h605v-47h-605v47zM270 99h349v-46h-349v46z" />
    <glyph glyph-name="buoumaotubiao26" unicode="&#xe618;" horiz-adv-x="1033" 
d="M963 -87h-884q-30 0 -54.5 23.5t-24.5 51.5v652q0 28 24 46.5t55 18.5h884q28 0 44.5 -17.5t16.5 -47.5v-652q0 -33 -17 -54t-44 -21zM79 658q-12 0 -22 -5.5t-10 -12.5v-652q0 -9 11 -18.5t21 -9.5h884q14 0 14 28v652q0 12 -3 15t-11 3h-884zM116 495h815v-46h-815v46z
M908 146h-280v186h280v-186zM675 193h186v93h-186v-93z" />
    <glyph glyph-name="buoumaotubiao28" unicode="&#xe619;" 
d="M435 194q-26 0 -41.5 18.5t-15.5 47.5v246q0 30 15.5 48.5t41.5 18.5q18 0 38 -12l213 -123q37 -21 37 -55t-37 -55l-213 -123q-20 -11 -38 -11zM435 526q-11 0 -11 -20v-246q0 -20 11 -20q6 0 15 5l213 124q13 7 13 14t-13 15l-213 123q-9 5 -15 5zM512.5 848
q94.5 0 180.5 -37t148.5 -99t99.5 -148t37 -180.5t-37 -180.5t-99.5 -148.5t-148.5 -99.5t-180.5 -37t-180.5 37t-148 99.5t-99 148.5t-37 180.5t37 180.5t99 148t148 99t180.5 37zM513 895q-104 0 -199 -40.5t-163.5 -109t-109 -163.5t-40.5 -199t40.5 -198.5t109 -163
t163.5 -109t199 -40.5t198.5 40.5t163 109t109 163t40.5 198.5t-40.5 199t-109 163.5t-163 109t-198.5 40.5v0z" />
    <glyph glyph-name="buoumaotubiao29" unicode="&#xe61a;" 
d="M954 -81h-884v884h884v-256q0 -10 -6.5 -16.5t-16.5 -6.5t-16.5 6.5t-6.5 16.5v209h-792v-791h792v210q0 9 6.5 16t16.5 7t16.5 -7t6.5 -16v-256zM880 337h-564q-10 0 -16.5 7t-6.5 16.5t6.5 16.5t16.5 7h564q10 0 16.5 -7t6.5 -16.5t-6.5 -16.5t-16.5 -7zM750 190
q-11 0 -18 9q-6 7 -5.5 16.5t8.5 16.5l147 123l-147 124q-8 7 -8.5 16.5t5.5 17t15.5 8t17.5 -5.5l190 -160l-190 -159q-7 -6 -15 -6z" />
    <glyph glyph-name="buoumaotubiao30" unicode="&#xe61b;" 
d="M954 -88h-884v884h628q10 0 16.5 -7t6.5 -16.5t-6.5 -16t-16.5 -6.5h-582v-792h792v582q0 10 6.5 16.5t16.5 6.5t16.5 -6.5t6.5 -16.5v-628zM364.5 183q-9.5 0 -16.5 6.5t-7 16.5t7 17l566 566q7 7 17 7t16.5 -7t6.5 -16.5t-7 -16.5l-566 -566q-7 -7 -16.5 -7z" />
    <glyph glyph-name="buoumaotubiao31" unicode="&#xe61c;" 
d="M426 -95v0q-31 0 -53 23l-351 350q-22 22 -22 53.5t22 53.5l345 345l341 1v0q10 0 17 -6.5t7 -16t-7 -16.5t-17 -7l-322 -2l-331 -331q-8 -8 -8 -20t8 -21l351 -351q8 -8 20 -8v0q12 0 21 8l331 332l11 132q0 10 7.5 16t17 5.5t16 -8t5.5 -16.5l-12 -150l-343 -343
q-22 -23 -54 -23zM625.5 441q-9.5 0 -16.5 7q-40 40 -40 97t40 97l181 180q40 41 97 41v0q57 0 97 -40.5t40 -97.5t-40 -97l-89 -89q-7 -7 -17 -7t-16.5 7t-6.5 16.5t7 16.5l89 89q26 27 26 64.5t-26.5 64t-63.5 26.5v0q-38 0 -65 -27l-180 -180q-26 -26 -26 -64t26 -64
q7 -7 7 -16.5t-7 -16.5t-16.5 -7z" />
    <glyph glyph-name="buoumaotubiao32" unicode="&#xe61d;" 
d="M826 -128h-628q-29 0 -49.5 20.5t-20.5 49.5v420q0 28 20.5 48.5t49.5 20.5h628q29 0 49.5 -20.5t20.5 -48.5v-420q0 -29 -20.5 -49.5t-49.5 -20.5zM198 385q-10 0 -16.5 -7t-6.5 -16v-420q0 -10 6.5 -16.5t16.5 -6.5h628q10 0 16.5 6.5t6.5 16.5v420q0 9 -6.5 16
t-16.5 7h-628zM262.5 404q-9.5 0 -16.5 7t-7 16v188q0 113 80 193t193 80t193 -80t80 -193v-48q0 -10 -7 -16.5t-16.5 -6.5t-16.5 6.5t-7 16.5v48q0 94 -66 160.5t-160 66.5t-160 -66.5t-66 -160.5v-188q0 -9 -7 -16t-16.5 -7z" />
    <glyph glyph-name="buoumaotubiao36" unicode="&#xe621;" horiz-adv-x="1027" 
d="M530 -60q-115 0 -222 47.5t-185 137.5q-54 63 -83 125q-58 121 -31 253.5t129 221.5q81 71 186.5 91t206.5 -14.5t172 -115.5q9 -11 22 -27t15 -18.5t12.5 -9t20.5 -8t33 -5.5v0q39 -11 81 -35.5t70 -56.5q63 -72 69 -168.5t-46 -175.5q0 -1 -1 -2l-1 -1
q-39 -59 -94 -106q-75 -66 -166.5 -99.5t-187.5 -33.5zM400 776q-132 0 -232 -86q-89 -79 -113 -196t27 -224q26 -57 76 -114q88 -101 212 -143t253 -17.5t230 112.5q39 33 69 74q2 3 4 5q54 68 52.5 155.5t-59.5 153.5q-52 60 -129 77l-15 2v1q-38 9 -54.5 21.5t-54.5 57.5
q-52 59 -121.5 90t-144.5 31zM646 512q-4 0 -8 1q-27 11 -50 25.5t-35 27t-21.5 26t-12 18.5t-3.5 9q-4 9 0.5 17.5t13.5 12t17.5 -1t11.5 -13.5l3 -6t9.5 -13.5t17 -18.5t27 -20t38.5 -19q9 -3 13 -12t1 -18q-6 -15 -22 -15zM776.5 431q-14.5 0 -24.5 10.5t-10 24.5
q0 15 10 25q9 10 24.5 10t24.5 -10q10 -10 10 -25q0 -14 -10 -24.5t-24.5 -10.5z" />
    <glyph glyph-name="buoumaotubiao37" unicode="&#xe622;" 
d="M838 -128h-647q-34 0 -57.5 24t-23.5 58v647q0 34 23.5 57.5t57.5 23.5h647q34 0 58 -23.5t24 -57.5v-647q0 -34 -24 -58t-58 -24zM191 636q-14 0 -24.5 -10.5t-10.5 -24.5v-647q0 -15 10.5 -25.5t24.5 -10.5h647q15 0 25.5 10.5t10.5 25.5v647q0 14 -10.5 24.5
t-25.5 10.5h-647v0zM225 474h579v-46h-579v46zM225 289h579v-47h-579v47zM225 80h579v-46h-579v46zM754 636h-468q-28 0 -40 21q-13 23 1 48l77 145q11 19 32.5 30t41.5 11h244q21 0 42 -12.5t31 -30.5l78 -141q14 -26 1 -49q-13 -22 -40 -22zM287 683l466 -1v2l-78 141
q-4 8 -14.5 13.5t-18.5 5.5h-244q-9 0 -19 -5t-14 -11l-78 -145v0v0zM520 708q-29 0 -49.5 20.5t-20.5 49.5t20.5 49t49.5 20t49 -20t20 -49t-20 -49.5t-49 -20.5zM520 801q-10 0 -16.5 -7t-6.5 -16.5t6.5 -16t16.5 -6.5t16.5 6.5t6.5 16t-6.5 16.5t-16.5 7z" />
    <glyph glyph-name="buoumaotubiao38" unicode="&#xe623;" 
d="M802 -105zM802 -128h-57q-10 0 -16.5 7t-6.5 16.5t6.5 16t16.5 6.5h57q9 0 16 7t7 16v880q0 10 -7 16.5t-16 6.5h-580q-9 0 -16 -6.5t-7 -16.5v-880q0 -9 7 -16t16 -7h399q10 0 16.5 -6.5t6.5 -16t-6.5 -16.5t-16.5 -7h-399q-28 0 -48.5 20.5t-20.5 48.5v880
q0 29 20.5 49t48.5 20h580q28 0 48.5 -20t20.5 -49v-880q0 -28 -20.5 -48.5t-48.5 -20.5zM675.5 318q-9.5 0 -16.5 7t-7 16v526q0 10 7 16.5t16.5 6.5t16 -6.5t6.5 -16.5v-526q0 -9 -6.5 -16t-16 -7z" />
    <glyph glyph-name="buoumaotubiao40" unicode="&#xe624;" 
d="M606 116q-144 0 -183 1q-56 1 -86.5 30.5t-36.5 62.5l-157 558h-96q-10 0 -17 6.5t-7 16.5t7 16.5t17 6.5h131l168 -595q1 -3 2 -7.5t6.5 -13.5t13.5 -16t22.5 -12.5t33.5 -5.5h553v0q10 0 17 -7t7 -16.5t-7 -16.5t-16 -7q-87 -1 -372 -1zM318 214q-8 0 -14.5 5.5
t-8.5 14.5q-1 9 4.5 17t15.5 9l616 94q10 0 16.5 6.5t6.5 16.5v138q0 9 -6.5 16t-16.5 7h-705q-10 0 -16.5 6.5t-6.5 16.5t6.5 16.5t16.5 6.5h705q29 0 49.5 -20.5t20.5 -48.5v-138q0 -29 -20 -49t-48 -21l-611 -93h-4zM387 -20zM321 -19.5q0 27.5 19.5 46.5t47 19t47 -19
t19.5 -46.5t-19.5 -47t-47 -19.5t-47 19.5t-19.5 47zM871 -20zM805 -19.5q0 27.5 19.5 46.5t47 19t47 -19t19.5 -46.5t-19.5 -47t-47 -19.5t-47 19.5t-19.5 47z" />
    <glyph glyph-name="buoumaotubiao41" unicode="&#xe625;" 
d="M503 459l-208 127v258q0 10 6.5 17t16 7t16.5 -7t7 -17v-232l162 -99l162 99v232q0 10 7 17t16.5 7t16.5 -7t7 -17v-258zM693 41q-13 0 -20 11q-5 8 -2.5 17.5t10.5 14.5l163 98q12 8 21 25.5t9 35.5v427q0 18 -9 35.5t-21 24.5l-148 102q-8 6 -9.5 15.5t4 17.5t15 9.5
t17.5 -3.5l146 -101q23 -14 37 -43t14 -57v-427q0 -28 -14 -57t-39 -44l-162 -98q-6 -3 -12 -3zM340 41q-6 0 -12 3l-176 98q-26 15 -46 44t-20 57v427q0 28 20.5 57t45.5 44l152 100q8 5 17 3t14.5 -10t3.5 -17.5t-10 -14.5l-153 -101q-16 -10 -29.5 -28.5t-13.5 -32.5
v-427q0 -14 13 -32.5t29 -28.5l176 -98q8 -4 10.5 -13.5t-1.5 -17.5q-7 -12 -20 -12zM688.5 -128q-9.5 0 -16.5 7t-7 16v162q0 10 7 16.5t16.5 6.5t16.5 -6.5t7 -16.5v-162q0 -9 -7 -16t-16.5 -7zM341 -128q-10 0 -16.5 7t-6.5 16v162q0 10 6.5 16.5t16.5 6.5t16.5 -6.5
t6.5 -16.5v-162q0 -9 -6.5 -16t-16.5 -7zM596 173h-185q-10 0 -17 7t-7 16.5t7 16t17 6.5h185q9 0 16 -6.5t7 -16t-7 -16.5t-16 -7z" />
    <glyph glyph-name="buoumaotubiao45" unicode="&#xe628;" 
d="M527 -84q-109 0 -202 54t-146.5 147t-53.5 202t53.5 201.5t146.5 146.5t202 54t201.5 -54t146.5 -146.5t54 -201.5t-54 -202t-146.5 -147t-201.5 -54zM526.5 675q-96.5 0 -178.5 -48t-129.5 -130t-47.5 -178.5t47.5 -178.5t129.5 -129.5t178.5 -47.5t179 47.5t130 129.5
t47.5 178.5t-47.5 178.5t-130 130t-179 48zM404 391zM366 390.5q0 15.5 11.5 26.5t27 11t26.5 -11t11 -26.5t-11 -26.5t-26.5 -11t-27 11t-11.5 26.5zM404.5 341q-20.5 0 -35 14.5t-14.5 35t14.5 35t35 14.5t35 -14.5t14.5 -35t-14.5 -35t-35 -14.5zM404 417q-11 0 -18.5 -8
t-7.5 -18.5t7.5 -18.5t18.5 -8t19 8t8 18.5t-8 18.5t-19 8zM687 390.5q0 -15.5 -11 -26.5t-26.5 -11t-26.5 11t-11 26.5t11 26.5t26.5 11t26.5 -11t11 -26.5zM649.5 341q-20.5 0 -35 14.5t-14.5 35t14.5 35t35 14.5t35 -14.5t14.5 -35t-14.5 -35t-35 -14.5zM649.5 417
q-10.5 0 -18.5 -8t-8 -18.5t8 -18.5t18.5 -8t18.5 8t8 18.5t-8 18.5t-18.5 8zM476 175q-12 0 -25 5q-10 3 -6 13q3 9 12 6q23 -8 36 2q13 9 18.5 31t5.5 39q0 10 10 10q10 -2 10 -10q0 -63 -32 -86q-13 -10 -29 -10zM476 164q-14 0 -29 5q-9 3 -12.5 11t-0.5 17q2 8 10.5 12
t16.5 1q17 -6 26 0q9 7 14 25.5t5 34.5q0 9 6 15.5t15 6.5q10 -1 16 -7t6 -14q0 -69 -37 -96q-16 -11 -36 -11zM573 175q-13 0 -23 6q-22 11 -32 44q-3 10 6.5 12.5t12.5 -6.5q7 -25 22 -33q12 -6 32 1q10 3 13 -6.5t-6 -12.5q-14 -5 -25 -5zM573 164q-16 0 -29 6
q-26 14 -37 52q-3 8 1.5 16t12.5 11q9 2 16.5 -2t10.5 -13q6 -20 16 -25q8 -4 23 1q8 3 16.5 -1t11.5 -12.5t-1 -16.5t-12 -11q-15 -5 -29 -5zM564 260q0 -13 -9.5 -22.5t-22.5 -9.5h-11q-13 0 -23 9.5t-10 22.5v0q0 14 10 23.5t23 9.5h11q13 0 22.5 -9.5t9.5 -23.5v0z
M532 216h-11q-18 0 -31 13t-13 31.5t13 31.5t31 13h11q18 0 31 -13t13 -31.5t-13 -31.5t-31 -13zM521 282q-9 0 -15 -6.5t-6 -15t6 -15t15 -6.5h11q8 0 14.5 6.5t6.5 15t-6.5 15t-14.5 6.5h-11zM358 -15q-39 -44 -79 -51q-43 -8 -84 13q8 10 13 20q10 18 6 38.5t-22 29.5
q-19 11 -34.5 -3t-17.5 -35q-2 -31 21 -53q-44 -34 -108 -35q-7 0 -9.5 -5.5t0 -10.5t9.5 -5q33 0 67.5 11.5t59.5 32.5q32 -18 75 -20q66 -4 123 63zM180 17q10 -1 13 -8.5t0.5 -16.5t-7 -17.5t-9.5 -15.5l-7 7q-5 6 -7.5 19t2 24t15.5 8zM52 -124q-9 0 -15 6.5t-6 16
t6 15.5t15 7q52 0 92 25q-18 23 -15 52q2 21 15 37t33 16q10 0 21 -5q22 -12 27 -37.5t-7 -46.5q-2 -5 -5 -10q33 -12 64 -7q36 6 72 47l5 7l8 -4q9 -4 20 -9l15 -6l-10 -12q-57 -68 -125 -68v0h-7q-41 2 -74 18q-53 -41 -128 -42h-1v0zM177 6q-2 0 -2 -2q-5 -9 1 -25
q9 18 7 25q-1 1 -5 2h-1zM774 579l-55 167l-27 -83l-44 14l71 219l99 -302zM278 579l-44 15l99 302l71 -219l-44 -14l-27 83z" />
    <glyph glyph-name="buoumaotubiao46" unicode="&#xe629;" horiz-adv-x="1026" 
d="M280 434q-29 0 -50 20l-194 195q-7 7 -7 16.5t7 16.5t16.5 7t16.5 -7l194 -195q7 -7 16.5 -7t16.5 7l110 110q6 7 6 16.5t-6 16.5l-195 194q-6 7 -6 16.5t6.5 16.5t16 7t16.5 -7l195 -194q20 -21 20 -50t-20 -49l-110 -110q-20 -20 -49 -20zM891.5 -120q-55.5 0 -95.5 40
l-283 283q-7 7 -7 16.5t7 16.5t16.5 7t16.5 -7l283 -283q26 -26 62.5 -26t62 25.5t25.5 62t-26 61.5l-283 284q-7 7 -7 16.5t6.5 16.5t16.5 7t17 -7l283 -284q39 -39 39 -94.5t-39 -95t-94.5 -39.5zM367 157q-72 0 -139.5 28t-120.5 80q-80 81 -101 193.5t25 216.5
q4 9 13 12.5t18 -0.5t12.5 -13t-0.5 -18q-40 -90 -22 -189t88 -169q76 -75 180 -90.5t198 34.5q9 4 18 1.5t13.5 -11t2 -18t-11.5 -13.5q-82 -44 -173 -44zM705 435q-2 0 -4 1q-10 1 -15 9t-3 18q15 79 -8 156t-80 134q-70 70 -169 88t-189 -22q-9 -4 -18 -0.5t-13 12.5
t-0.5 18t12.5 13q104 46 216.5 25t193.5 -101q65 -66 91.5 -154t8.5 -178q-1 -8 -7.5 -13.5t-15.5 -5.5z" />
    <glyph glyph-name="buoumaotubiao47" unicode="&#xe62a;" 
d="M625 -64h-558v884h884v-559q0 -9 -7 -16t-16.5 -7t-16.5 7t-7 16v512h-791v-791h512q10 0 16.5 -7t6.5 -16.5t-6.5 -16t-16.5 -6.5zM519 172q18 32 49.5 51.5t69.5 19.5h55v54q0 41 22 74.5t59 49.5v3v0l-70 209l-241 -312l-65 110l-257 -259h378v0v0zM398 608
q0 32 -22.5 54.5t-54 22.5t-54 -22.5t-22.5 -54.5t22.5 -54t54 -22t54 22t22.5 54v0zM934 73h-274q-10 0 -16.5 6.5t-6.5 16.5t6.5 16.5t16.5 6.5h274q10 0 16.5 -6.5t6.5 -16.5t-6.5 -16.5t-16.5 -6.5zM797 -64q-10 0 -16.5 6.5t-6.5 16.5v274q0 10 6.5 16.5t16.5 6.5
t16.5 -6.5t6.5 -16.5v-274q0 -10 -6.5 -16.5t-16.5 -6.5z" />
    <glyph glyph-name="buoumaotubiao48" unicode="&#xe62b;" 
d="M625 -112l-55 187h-454q-48 0 -82 34t-34 83v535q0 48 34 82t82 34h792q48 0 82 -34t34 -82v-535q0 -49 -34 -83t-82 -34h-122zM116 797q-29 0 -49 -20.5t-20 -49.5v-535q0 -29 20 -49.5t49 -20.5h489l41 -139l119 139h143q29 0 49 20.5t20 49.5v535q0 29 -20 49.5
t-49 20.5h-792zM849 541h-674q-10 0 -17 6.5t-7 16.5t7 16.5t17 6.5h674q10 0 17 -6.5t7 -16.5t-7 -16.5t-17 -6.5zM617 354h-442q-10 0 -17 7t-7 16.5t7 16.5t17 7h442q9 0 16 -7t7 -16.5t-7 -16.5t-16 -7z" />
    <glyph glyph-name="buoumaotubiao49" unicode="&#xe62c;" 
d="M512 849q95 0 181 -36.5t148.5 -99t99 -148.5t36.5 -181t-36.5 -181t-99 -148.5t-148.5 -99t-181 -36.5t-181 36.5t-148.5 99t-99 148.5t-36.5 181t36.5 181t99 148.5t148.5 99t181 36.5zM512 896q-104 0 -199 -40.5t-163.5 -109t-109 -163.5t-40.5 -199t40.5 -199
t109 -163.5t163.5 -109t199 -40.5t199 40.5t163.5 109t109 163.5t40.5 199t-40.5 199t-109 163.5t-163.5 109t-199 40.5v0zM820 365q0 -118 -90 -201.5t-218 -83.5t-218 83.5t-90 201.5h616zM349 558zM287 557.5q0 25.5 18 43.5t43.5 18t44 -18t18.5 -43.5t-18.5 -43.5
t-44 -18t-43.5 18t-18 43.5zM691 558zM629 557.5q0 25.5 18 43.5t44 18t44 -18t18 -43.5t-18 -43.5t-44 -18t-44 18t-18 43.5z" />
    <glyph glyph-name="buoumaotubiao50" unicode="&#xe62d;" 
d="M954.5 -111q-9.5 0 -16.5 7l-885 884q-6 7 -6 16.5t6.5 16.5t16 7t16.5 -7l885 -884q6 -7 6 -16.5t-6.5 -16.5t-16 -7zM69.5 -111q-9.5 0 -16 7t-6.5 16.5t6 16.5l885 884q7 7 16.5 7t16 -7t6.5 -16.5t-6 -16.5l-885 -884q-7 -7 -16.5 -7z" />
    <glyph glyph-name="buoumaotubiao17" unicode="&#xe62e;" 
d="M975 411l-1 5q-3 16 -9 28t-19 24t-34.5 17.5t-55.5 8.5t-81 -4q-49 -5 -75 19t-27 69q3 17 6 40.5t5.5 66.5t-3 85.5t-21.5 71.5q-21 39 -66.5 50.5t-81.5 -7.5q-37 -17 -51.5 -50t-0.5 -70q45 -120 -73 -258q-19 -21 -42 -36.5t-42.5 -22t-38 -10.5t-28 -3t-12.5 0
h-113v0h-0.5h-0.5v0q-24 -1 -44 -17t-20 -45v-361q-1 -36 22 -55q14 -11 34 -11q5 0 12 1h1v0v0h1v0q2 0 5 1q107 24 155 -7q29 -18 75.5 -32t69 -17.5t36.5 -4.5l294 -11q15 -4 31 -4q33 0 61.5 16.5t43.5 55.5q15 38 -3 69l-4 6q33 20 47 71q13 44 -9 80q18 3 29 12
q21 14 23 40q4 65 -27 96q45 32 32 93z" />
    <glyph glyph-name="buoumaotubiao39" unicode="&#xe62f;" 
d="M944 53h-69v46h64q6 0 6 24v560v1v0q0 -3 -1 -3h-517q-12 0 -13 -2v-119q0 -25 -11 -45t-33 -20h-163q-71 0 -108.5 -52t-37.5 -145v-175q0 -6 7 -15t12 -9h74v-46h-77q-22 0 -42.5 25.5t-20.5 44.5v175q0 111 52 177.5t141 66.5h158q1 1 0.5 2t-1.5 6t-1 8v125
q0 21 20.5 33t43.5 12h517q21 0 34.5 -12t13.5 -33v-560q0 -10 -3.5 -24.5t-15 -30t-29.5 -15.5zM457 99h139v-46h-139v46zM736 -47q-55 0 -94 39t-39 94t39 94t94 39t94 -39t39 -94t-39 -94t-94 -39zM735.5 175q-36.5 0 -62.5 -26t-26 -62.5t26 -62.5t62.5 -26t62.5 26
t26 62.5t-26 62.5t-62.5 26zM305.5 -47q-55.5 0 -94.5 39t-39 94t39 94t94.5 39t94.5 -39t39 -94t-39 -94t-94.5 -39zM305.5 175q-36.5 0 -62.5 -26t-26 -62.5t26 -62.5t62.5 -26t62.5 26t26 62.5t-26 62.5t-62.5 26zM410 286h-233v46h186v117h47v-163z" />
    <glyph glyph-name="buoumaotubiao44" unicode="&#xe630;" 
d="M1004 513.5q-11 35.5 -61 42.5l-174 25q-32 5 -66 29.5t-48 53.5l-78 157q-22 46 -59 46t-59 -46l-78 -157q-14 -29 -48 -53.5t-66 -29.5l-174 -25q-50 -7 -61.5 -42.5t25.5 -70.5l125 -122q23 -23 36 -63t8 -72l-30 -173q-7 -40 12 -63q14 -16 36.5 -17.5t47.5 11.5
l155 81q28 15 71 15t70 -15l156 -81q22 -12 42 -12q26 0 41 18q20 23 13 63l-30 173q-5 32 7.5 72t36.5 63l125 122q36 35 25 70.5z" />
    <glyph glyph-name="buoumaotubiao451" unicode="&#xe631;" 
d="M786 -68q-20 0 -42 12l-156 81q-27 15 -70 15t-71 -15l-155 -81q-25 -13 -47.5 -11.5t-36.5 17.5q-19 23 -12 64l30 172q5 32 -8 72t-36 63l-125 122q-37 35 -25.5 70.5t61.5 42.5l174 25q32 5 66 29.5t48 53.5l78 157q22 46 59 46t59 -46l78 -157q14 -29 48 -53.5
t66 -29.5l174 -25q50 -7 61 -42.5t-25 -70.5l-125 -122q-24 -23 -36.5 -63t-7.5 -72l30 -173q7 -40 -13 -63q-15 -18 -41 -18zM517.5 83q52.5 0 90.5 -20l156 -82q23 -12 31 -3q6 7 3 28l-30 173q-7 43 9 92.5t47 79.5l125 123q18 16 14.5 26t-27.5 14l-173 25q-43 6 -85 37
t-61 69l-78 157q-11 22 -21.5 22t-20.5 -22l-78 -157q-19 -38 -61.5 -69t-84.5 -37l-174 -25q-24 -4 -27 -14t14 -26l126 -123q31 -30 47 -79.5t9 -92.5l-30 -173q-4 -21 3 -28q7 -9 31 3l155 82q38 20 90.5 20z" />
    <glyph glyph-name="buoumaotubiao52" unicode="&#xe632;" 
d="M770.5 349q-9.5 0 -16.5 7l-439 439q-7 7 -7 16.5t7 16.5t16.5 7t16.5 -7l439 -439q7 -7 7 -16.5t-7 -16.5t-16.5 -7zM331.5 -96q-9.5 0 -16.5 6.5t-7 16.5t7 17l442 442q7 7 17 7t16.5 -7t6.5 -16.5t-7 -16.5l-442 -442q-7 -7 -16.5 -7z" />
    <glyph glyph-name="buoumaotubiao53" unicode="&#xe633;" 
d="M269 389q10 0 16 -6l439 -439q7 -7 7 -17t-6.5 -16.5t-16.5 -6.5t-16 7l-439 439q-7 7 -7 16.5t6.5 16t16.5 6.5zM708 835q10 0 16.5 -7t6.5 -16.5t-7 -16.5l-442 -442q-7 -7 -16.5 -7t-16 7t-6.5 16.5t6 16.5l443 442q6 7 16 7z" />
    <glyph glyph-name="bianji" unicode="&#xe635;" horiz-adv-x="1240" 
d="M1018 -75h-991q-11 0 -19 -7.5t-8 -18.5t8 -19t19 -8h991q11 0 18.5 8t7.5 19t-7.5 18.5t-18.5 7.5v0zM66 2q3 0 7 1l164 47q7 2 12 7l516 516q8 8 8 19t-8 19t-19 8t-18 -8l-447 -446l-87 86q-4 5 -10 7l436 437q8 7 8 18.5t-7.5 19t-18.5 7.5t-19 -8l-513 -512
q-6 -6 -7 -15l-24 -172q-1 -15 9 -24q8 -7 18 -7v0zM114 189l36 35q2 -6 6 -10l87 -87l-27 -27l-118 -34l16 123v0zM779 628q8 -7 18 -7q12 0 20 9l94 102q7 8 6.5 19t-8.5 18l-129 120q-8 7 -19 7t-19 -9l-94 -102q-7 -8 -7 -19t9 -18l129 -120v0zM763 831l91 -83l-58 -63
l-91 84l58 62v0zM1174 175l38 39l10 -9l-39 -39zM1234 217l-8 -8l-9 9l7 8zM1174 175l-4 -13zM1170 162l13 4zM1168 157h70h-70z" />
    <glyph glyph-name="hr" unicode="&#xe63a;" 
d="M512 873q-99 0 -189.5 -39t-156 -104.5t-104.5 -156t-39 -189.5t39 -189.5t104.5 -156t156 -104.5t189.5 -39t189.5 39t156 104.5t104.5 156t39 189.5t-39 189.5t-104.5 156t-156 104.5t-189.5 39zM728.5 260.5q-14.5 -5.5 -29 1t-19.5 20.5q-7 19 -24.5 31.5t-38.5 12.5
q-28 0 -48 -20t-20 -48t20 -47.5t48 -19.5t51 23q10 12 26 13t27 -8q22 -19 5 -54q-14 -27 -67 -56t-100 -35q-80 -9 -137.5 4t-86.5 38.5t-44.5 64.5t-17 72t3 69.5t8 50t6.5 20.5v0q-9 43 -7.5 86t5.5 72.5t12 56.5t12 37.5t6 15.5q8 14 23.5 17.5t27.5 -3.5
q27 -17 14 -51q-17 -39 -20.5 -85.5t1.5 -73.5l5 -27q5 28 13 54.5t17.5 48.5t20 41t21.5 34.5t21.5 28t20 22t16 15.5t12 10l5.5 4q12 9 28 6t25 -15.5t6 -28.5t-15 -25q-3 -1 -11.5 -9t-22.5 -26t-27.5 -40t-24.5 -54.5t-14 -65.5q23 42 52 75.5t51.5 52t48 32t35.5 17
t20 6.5h2q16 6 29.5 -1.5t17.5 -23.5q5 -16 -2.5 -29.5t-23.5 -17.5h-1q-11 -5 -23.5 -12.5t-38 -26t-50.5 -49t-43 -68.5q32 12 77 12q44 0 81.5 -26t53.5 -67q7 -16 1.5 -31t-20 -20.5z" />
    <glyph glyph-name="sjs" unicode="&#xe63b;" 
d="M652 249zM589 249q0 26 18.5 44.5t44.5 18.5t44 -18.5t18 -44.5t-18 -44.5t-44 -18.5t-44.5 18.5t-18.5 44.5zM375 249zM312 249q0 26 18.5 44.5t44.5 18.5t44.5 -18.5t18.5 -44.5t-18.5 -44.5t-44.5 -18.5t-44.5 18.5t-18.5 44.5zM512 873q-99 0 -189.5 -39t-156 -104.5
t-104.5 -156t-39 -189.5t39 -189.5t104.5 -156t156 -104.5t189.5 -39t189.5 39t156 104.5t104.5 156t39 189.5t-39 189.5t-104.5 156t-156 104.5t-189.5 39zM728 172q-31 -31 -75 -31t-76 31q-23 23 -29 54t6 60l-9 9l-15 15l-16 16q-5 -6 -14.5 -15t-15.5 -15t-9 -10
q11 -27 4.5 -58.5t-30.5 -55.5q-31 -31 -75.5 -31t-76 31.5t-31.5 75t32 73.5q25 26 56 32t65 -11l35 35q-13 13 -35 36t-36 37t-30 31t-25.5 29.5t-13.5 20.5q-11 21 -11 43.5t5 33.5l6 11l191 -191l65 65l42 42l91 91l2.5 -5t5 -13t5 -20t-1 -24.5t-9.5 -28.5l-2 -2
q-1 -4 -8 -14t-14 -18l-6 -8q-29 -33 -112 -121l37 -37q34 17 68 12.5t58 -28.5q30 -30 31.5 -72.5t-29.5 -74.5z" />
    <glyph glyph-name="bq" unicode="&#xe63c;" 
d="M22 384q0 -99 39 -189.5t104 -156.5t156 -105t191 -39t191 39t156 105t104 156.5t39 189.5q0 100 -39 191t-104 156t-156 104t-191 39t-191 -39t-156 -104t-104 -156t-39 -191zM826 366q0 -120 -92 -204.5t-222 -84.5t-222 84.5t-92 204.5h628zM345 562zM283 562
q0 26 18 44t44 18t44 -18t18 -44t-18 -44t-44 -18t-44 18t-18 44zM695 562zM632 562q0 26 18.5 44t44 18t44 -18t18.5 -44t-18.5 -44t-44 -18t-44 18t-18.5 44z" />
    <glyph glyph-name="qdsx" unicode="&#xe63e;" 
d="M512 874q-100 0 -191 -39t-156 -104t-104 -156t-39 -191t39 -191t104 -156t156 -104t191 -39t191 39t156 104t104 156t39 191t-39 191t-104 156t-156 104t-191 39zM797 471l-378 -339q-3 0 -3 -2l-2 -2q-2 0 -2 -2h-2q-2 0 -4 -1t-3 -1v0v0v0q-5 0 -9 2h-2q-1 1 -3.5 2
t-3.5 2v0v0l-2 2l-178 288q-5 8 -3 17t9 14q9 4 17.5 2t14.5 -9l162 -265l359 321q6 6 15 5t16 -7q9 -4 9 -13t-7 -14z" />
    <glyph glyph-name="qdsx1" unicode="&#xe63f;" 
d="M512 829q90 0 172.5 -35.5t142 -95t95 -142t35.5 -172.5t-35.5 -172.5t-95 -142t-142 -95t-172.5 -35.5t-172.5 35.5t-142 95t-95 142t-35.5 172.5t35.5 172.5t95 142t142 95t172.5 35.5zM512 874q-100 0 -191 -39t-156 -104t-104 -156t-39 -191t39 -191t104 -156
t156 -104t191 -39t191 39t156 104t104 156t39 191t-39 191t-104 156t-156 104t-191 39v0zM799 502q-14 15 -31 2l-358 -323l-163 265q-5 9 -14 10.5t-17 -3.5t-10 -14t3 -17l178 -287l3 -3v0v0q4 -4 6 -4h2q1 0 4 -1t5 -1v0v0v0q5 0 7 2h2q3 0 3 2l2 2q2 0 2 3l378 338
q4 3 4 13t-6 16z" />
    <glyph glyph-name="lj" unicode="&#xe640;" 
d="M512 874q-99 0 -190 -39t-156.5 -104.5t-104.5 -156.5t-39 -190t39 -190t104.5 -156.5t156.5 -104.5t190 -39t190 39t156.5 104.5t104.5 156.5t39 190t-39 190t-104.5 156.5t-156.5 104.5t-190 39zM766 404l-327 -327q-7 -7 -16 -7t-15.5 6.5t-6.5 17t6 16.5l328 327
q35 36 35 89q0 50 -35 90q-36 35 -89 35q-50 0 -89 -35v0l-279 -281q-22 -22 -22 -53.5t22 -53.5t53.5 -22t53.5 22q2 0 2 2.5t3 2.5l238 240q9 9 9 20t-9 20q-9 8 -19.5 8t-18.5 -8l-241 -243q-6 -6 -16 -6t-17 6.5t-7 16.5t7 17l241 240q21 22 51.5 22t52.5 -22t22 -51
q0 -32 -22 -51l-240 -243q-2 0 -2.5 -2t-2.5 -2q-35 -36 -87 -36q-47 0 -86 36q-36 35 -36 87q0 47 36 86l282 283q3 0 3 2q48 45 113 45q73 0 120 -51q52 -52 52 -121q0 -72 -47 -122z" />
    <glyph glyph-name="xx" unicode="&#xe641;" 
d="M766 453h-512q-10 0 -16 6t-6 16t6 16.5t16 6.5h512q10 0 16 -6.5t6 -16.5t-6 -16t-16 -6zM557 275h-303q-10 0 -16 6t-6 16t6 16t16 6h303q10 0 16 -6t6 -16t-6 -16t-16 -6zM512 809q174 0 298 -124l3 -3q58 -60 90 -137.5t32 -160.5q0 -68 -20 -131q-19 -58 -54 -109
l-8 -12v-13v-158h-341q-174 0 -298 125l-9 9q-57 58 -86.5 133.5t-29.5 157.5q0 85 32.5 162.5t92.5 136.5l9 8q59 56 133.5 86t155.5 30v0zM512 854q-95 0 -179.5 -36.5t-149.5 -101.5v0q-66 -65 -102 -149.5t-36 -180.5q0 -95 35.5 -180t99.5 -151v0q65 -65 149.5 -100.5
t180.5 -35.5h347v0q15 0 25.5 10t10.5 25v165q43 67 60 120q22 64 22 145q0 95 -35.5 180t-100.5 149l-2 3q-61 64 -145.5 101t-179.5 37v0v0z" />
    <glyph glyph-name="js" unicode="&#xe642;" 
d="M501 -97q-99 0 -190 39t-156.5 104.5t-104.5 156.5t-39 190t39 189.5t104.5 156.5t156.5 105t190 39t189.5 -39t156.5 -105t105 -156.5t39 -189.5t-39 -190t-105 -156.5t-156.5 -104.5t-189.5 -39zM501 838q-90 0 -172.5 -35.5t-142.5 -95t-95 -142t-35 -172.5t35 -172.5
t95 -142.5t142.5 -95t172.5 -35t172.5 35t142 95t95 142.5t35.5 172.5t-35.5 172.5t-95 142t-142 95t-172.5 35.5zM501 306q-13 0 -23.5 10t-10.5 23v290q0 13 10.5 23t23.5 10t23 -10t10 -23v-290q0 -13 -10 -23t-23 -10zM501 106q-21 0 -40 15q-16 20 -16 40.5t16 39.5
q15 15 39 15t39 -15t15 -40q0 -20 -15 -40q-16 -15 -38 -15z" />
    <glyph glyph-name="dianpu" unicode="&#xe644;" 
d="M853 306q-88 0 -201 96l-6 6v223q0 10 6 16t16 6t16 -6t6 -16v-202q57 -47 106.5 -66.5t85.5 -9.5q49 15 73 93q10 38 0.5 86t-28.5 95.5t-41 88.5t-36.5 65t-16.5 26q-6 8 -4 17t10 14q5 7 14.5 5.5t14.5 -9.5q1 -1 2 -4q7 -10 12 -18t17 -29t21.5 -39.5t23 -45.5
t23 -51.5t18.5 -54t13.5 -55.5t4.5 -52.5t-6 -49.5q-26 -101 -102 -124q-31 -5 -42 -5zM171 306q-22 0 -42 7q-76 25 -102 124q-13 50 3 120t46 131.5t51 98t29 47.5q5 8 14.5 10t16.5 -4q8 -5 10 -14t-3 -17q-2 -2 -17 -26.5t-37 -65.5t-40.5 -88.5t-28.5 -95t0 -84.5
q20 -78 74 -94q74 -24 191 76v202q0 10 6 16.5t16 6.5t16.5 -6.5t6.5 -16.5v-222l-7 -7q-111 -98 -203 -98zM848 800h-674q-10 0 -16.5 6.5t-6.5 16.5t6.5 16t16.5 6h674q10 0 16 -6t6 -16t-6 -16.5t-16 -6.5zM519 311v0q-28 0 -56.5 9t-48.5 22t-37 27t-25 23.5t-9 11.5
q-7 8 -6.5 17t8.5 14q7 5 16.5 4.5t14.5 -6.5q3 -3 7.5 -8t19.5 -18t31 -23t39 -18.5t46 -8.5v0q66 0 131 76q5 7 15 8t16.5 -4t8 -14.5t-3.5 -16.5q-76 -95 -167 -95zM824 -77h-650q-25 0 -42.5 17.5t-17.5 42.5v236q0 10 6 16.5t16 6.5t16 -6.5t6 -16.5v-236
q0 -6 4.5 -10.5t11.5 -4.5h650q6 0 10.5 4.5t4.5 10.5v236q0 10 6 16.5t16.5 6.5t16.5 -6.5t6 -16.5v-236q0 -24 -18.5 -42t-41.5 -18z" />
    <glyph glyph-name="1" unicode="&#xe645;" 
d="M145 -92v400h51v-349h641v349h53v-400h-745v0zM327 250q-35 43 -35 94q0 58 40.5 99t99.5 41q45 0 84 -29l3 -2l2 2q40 29 84 29q59 0 100 -41t41 -99q0 -51 -34 -91l-120 -109l-35 37l120 110v0q18 21 18 53q0 36 -26 61.5t-61 25.5q-43 0 -67 -31l-20 -25l-20 25
q-24 31 -67 31q-36 0 -61.5 -26t-25.5 -61t20 -58v0l183 -169l-38 -38l-185 171v0zM519 809l-452 -481l-38 36l490 523l489 -523l-37 -36l-452 481v0z" />
    <glyph glyph-name="weibiaoti2" unicode="&#xe646;" 
d="M859 633q0 22 -12 34.5t-24 13.5l-13 1h-596h-5.5t-12 -3t-15 -7.5t-11.5 -14.5t-5 -24v-49h696v49h-2zM710 785h-396q-2 0 -5.5 -0.5t-12 -3t-15 -7t-11.5 -15t-5 -23.5h496q0 21 -12.5 33.5t-25.5 13.5l-13 2v0zM959 584l-28 29v-80h-838v80l-28 -29q-4 -3 -14 -12.5
t-12.5 -12.5t-8.5 -12t-6.5 -16t-0.5 -19.5t4 -27.5q4 -23 38.5 -223t39.5 -226q1 -15 8.5 -25.5t15 -15.5t17 -7.5t13.5 -3t6 -0.5v0h696q3 0 6.5 0.5t12.5 3t16.5 7t15 15t10.5 23.5q2 13 36 213.5t42 236.5q2 16 2 28.5t-1 20t-7 16.5t-8.5 12t-12.5 12.5t-14 12.5v0z
M710 315v-5.5t-3 -11.5t-7.5 -14.5t-14.5 -12t-24 -5.5h-298q-22 0 -34 12.5t-14 24.5l-1 12v100h69v-80h258v80h69v-100v0v0z" />
    <glyph glyph-name="weibiaoti3" unicode="&#xe647;" 
d="M637 119l-20 18l158 142l20 -17zM775 208l20 -18l-80 -71l-18 18zM1002 -55q0 12 -18 34h-1v1l-1 1h-1l-1 1v1l-1 1l-1 1l-1 1l-2 2h-1l-1 1v1l-1 1l-1 1l-1 1l-1 1l-1 1l-2 2l-29 29l-31 31l-20 20q18 24 29 60q11 37 11 67q0 42 -18 89q-16 38 -49 71t-71 49
q-43 18 -89 18q-43 0 -89 -18q-38 -16 -71 -49t-49 -71q-18 -43 -18 -89q0 -43 18 -89q14 -37 49 -72q33 -33 71 -49q43 -17 89 -17q37 0 67 9q32 10 58 26l102 -98q17 -13 33 -13q19 0 32 16q11 11 11 28v0zM850 141q-14 -32 -33 -51q-25 -24 -51 -33q-30 -14 -62.5 -14
t-62.5 14q-32 14 -51 33q-25 25 -33 51q-14 30 -14 62.5t14 62.5q14 32 33 51q24 25 51 34q30 13 62.5 13t62.5 -13q32 -15 51 -34q24 -24 33 -51q14 -30 14 -62q-4 -42 -14 -63v0zM318 713q14 0 20 7q9 9 9 18v107q0 12 -9 18q-6 6 -19.5 6t-20.5 -6q-9 -6 -9 -16v-107
q0 -10 7 -20q10 -7 22 -7v0v0zM532 720q10 -7 18 -7q13 0 20 7q9 6 9 18v107q0 9 -7 15q-9 9 -20 9t-20 -9q-7 -6 -7 -20v-104q-3 -6 7 -16v0v0zM583 -48q-54 25 -89 60t-60 89q-22 48 -22 109.5t22 108.5q25 55 60 89.5t89 60.5q4 1 11.5 4t10.5 4q1 4 4.5 13.5t4.5 15.5
q18 64 9 94q-10 32 -42 51q-22 12 -49 9q-32 -8 -47 -18q-18 -9 -49 -35q-22 22 -49 35q-11 8 -46 18q-27 7 -49 -9q-34 -22 -43 -51q-10 -32 9 -94q16 -46 22 -60q11 -17 7 -31q-1 -4 -2 -11.5t-2 -10.5q-5 -15 -14 -29q-1 -2 -7 -11t-10 -18q-5 -8 -17 -26t-19 -30
l-45 -66q-9 -18 -26 -45t-18 -29q-36 -52 -40 -58q-27 -31 -29 -33q-26 -23 -34 -45q-6 -18 21 -38q12 -8 44 -17q29 -12 82 -23q50 -13 118 -20q67 -6 149.5 -6t149.5 6q53 6 115 18q7 1 20.5 4.5t20.5 4.5q-32 -4 -49 -4q-67 3 -112 24v0z" />
    <glyph glyph-name="weibiaoti4" unicode="&#xe648;" 
d="M512 851q-87 -65 -178 -99t-223 -34v-345q0 -49 23.5 -110.5t64 -121.5t90.5 -111t109 -82t114 -31t114 31t109 82t90.5 111t64 121.5t23.5 110.5v345q-132 0 -223 34t-178 99zM855 375q0 -53 -31.5 -121.5t-79 -128t-111 -101t-121.5 -41.5t-121.5 41.5t-111 101
t-79 128t-31.5 121.5v296q112 0 191.5 29t151.5 85q72 -56 151.5 -85t191.5 -29v-296zM512 716q-62 -47 -127 -71.5t-158 -24.5v-247q0 -43 26 -99.5t66 -105.5t92.5 -83.5t100.5 -34.5t100.5 34.5t92.5 84t66 106t26 100.5v247q-94 0 -159 23.5t-126 70.5v0zM681 471h-4
q-18 0 -31 -5q-10 -6 -16 -17l-107 -274h-18l-2 2l-111 272q-8 16 -16 20q-9 4 -27 4h-4v27h138v-27h-4q-27 0 -32 -4q-6 -6 -2 -16l83 -200l75 200q3 8 -2 13q-10 7 -33 7h-5v27h123l-5 -29v0zM681 471z" />
    <glyph glyph-name="weibiaoti5" unicode="&#xe649;" 
d="M590 391l13 11q16 12 5 27q-12 15 -27 0l-13 -12q-35 35 -67 32q-28 0 -49 -18q-39 -33 -13 -85l13 -27l-76 -64q-9 13 -13 36q0 18 11 35q4 9 4 15.5t-4 11.5q-3 7 -11 7q-9 0 -14 -5q-14 -11 -17 -27q-8 -22 -5 -42q4 -28 22 -53l-15 -9q-15 -13 -5 -27q14 -13 27 0
l14 11q35 -35 73 -35q28 0 49 17q19 15 22 36q7 27 -9 56l-13 29l69 60q6 -11 9 -25q3 -17 -9 -35q-7 -14 2 -23q1 -1 11 -6q9 0 14 4q6 7 13 20q7 20 7 38t-18 47zM470 217q-15 -11 -29 -11q-22 0 -43 20v0l69 60l5 -7q19 -41 -2 -62zM479 344l-3 7q-11 27 -9 35
q5 14 12 20q17 14 37 7q16 -4 25 -16zM396 -124h-4q-25 4 -38 20l-314 350q-18 18 -18 42q0 23 20 43l512 458h3h2q15 9 29 9h4l53 0.5t109.5 0.5h112t68.5 -1h7q29 -3 44 -24q16 -16 16 -43v-2q-4 -30 -13 -116.5t-16.5 -154t-8.5 -72.5q-9 -26 -16 -33v-2q-1 -2 -2.5 -4
t-3.5 -3.5t-3 -1.5l-500 -450q-16 -16 -43 -16zM574 749l-501 -450q-6 -6 -6 -11q0 -6 4 -11l314 -349q3 -4 13 -7l9 2l506 457v0l1 2.5t2.5 6.5t2.5 8t7 58t15.5 139t15.5 139q0 9 -6 16q-4 7 -14 7h-4q-12 1 -71 1t-147.5 -0.5t-122.5 -0.5h-4q-5 -2 -7 -2zM766 489h-9
q-36 0 -60 31q-24 26 -22 63t28 61q28 23 62.5 23t62.5 -31q24 -27 22 -63.5t-29 -61.5q-25 -22 -55 -22zM766 620q-19 0 -34 -11q-13 -12 -13.5 -30.5t11.5 -31.5q11 -16 29 -16h2q15 -4 29 11q13 12 13.5 30.5t-11.5 31.5q-10 16 -26 16z" />
    <glyph glyph-name="weibiaoti6" unicode="&#xe64a;" 
d="M895 -83h-588q-43 0 -75 31.5t-32 74.5v588q0 43 32 75t75 32h586q44 0 75.5 -31.5t31.5 -75.5v-585q1 -45 -30 -77t-75 -32zM307 673q-26 0 -44 -18.5t-18 -43.5v-585q0 -27 18.5 -45t43.5 -18h586q26 0 44 18.5t18 44.5v585q0 26 -18.5 44t-43.5 18h-586zM149 61
q-47 0 -87 32t-40 75v597q0 24 16 40q12 11 35 17t39 6.5t44 0.5h13h597q54 0 76 -25t22 -62q0 -10 -6.5 -16t-16.5 -6t-16 6t-6 16q0 22 -11 32.5t-42 10.5h-610q-74 0 -87 -11q0 -1 -1 -4t-1 -5v-597q0 -24 27 -43t55 -19q10 0 16 -6.5t6 -16.5t-6 -16t-16 -6zM957 495
h-645q-10 0 -16.5 6.5t-6.5 16.5t6.5 16t16.5 6h645q10 0 16 -6t6 -16t-6 -16.5t-16 -6.5zM957 250h-645q-10 0 -16.5 6.5t-6.5 16.5t6.5 16t16.5 6h645q10 0 16 -6t6 -16t-6 -16.5t-16 -6.5zM668 95h-356q-10 0 -16.5 6t-6.5 16t6.5 16t16.5 6h356q10 0 16 -6t6 -16t-6 -16
t-16 -6z" />
    <glyph glyph-name="1sousuo" unicode="&#xe64f;" 
d="M997 -52l-249 248q57 61 83 139q25 69 25 139q0 113 -55.5 208.5t-151 151t-208 55.5t-208 -55.5t-151 -151t-55.5 -208.5t55.5 -208t151 -150.5t207.5 -55.5q76 0 142 24q44 17 58 27q19 11 10 34q-11 19 -34 10q-7 -5 -15.5 -8.5t-19.5 -7.5t-16 -6q-52 -20 -125 -20
q-99 0 -183.5 49t-133 133.5t-48.5 184t48.5 183.5t133 133t184 49t183.5 -49t133 -133t49 -184q0 -63 -19 -122q-27 -79 -86 -134q-7 -7 -7 -21.5t7 -22.5l261 -261q7 -7 17 -7t17 7q7 4 7 13t-7 17z" />
    <glyph glyph-name="2shouye2" unicode="&#xe653;" 
d="M817 -59h-195v195q0 11 -7.5 18t-18.5 7h-128q-11 0 -18 -7.5t-7 -17.5v-195h-177q-30 0 -52 22t-22 52v282h-192l532 545l492 -507v-33h-23l-108 -2v-282q0 -32 -22.5 -54.5t-53.5 -22.5z" />
    <glyph glyph-name="1shouye" unicode="&#xe654;" 
d="M817 -59h-195v195q0 11 -7.5 18t-18.5 7h-128q-11 0 -18 -7.5t-7 -17.5v-195h-177q-30 0 -52 22t-22 52v282h-192l532 545l492 -507v-33h-23l-169 -5q-10 0 -18 7t-8 16q0 10 7 18t16 8l113 2l-410 423l-414 -423h123v-330q0 -11 7.5 -18.5t17.5 -7.5h126v144
q0 30 21.5 52t52.5 22h128q31 0 52.5 -22t21.5 -52v-144h146q11 0 18.5 8t7.5 18v228q0 10 7 17.5t18 7.5q10 0 18 -7t8 -18v-228q2 -32 -20.5 -54.5t-53.5 -22.5z" />
    <glyph glyph-name="3sousuo1" unicode="&#xe655;" 
d="M509 520q-56 0 -94 -39q-41 -40 -41 -95.5t40.5 -96t96 -40.5t96 40.5t40.5 96t-40 95.5q-43 39 -98 39zM512 896q-138 0 -256 -69t-187 -187t-69 -256t69 -256t187 -187t256 -69t256 69t187 187t69 256t-69 256t-187 187t-256 69zM643 251q-54 -54 -131 -54t-130.5 54
t-53.5 132t53 132q44 43 103 52t110 -17l215 128l-123 -227q18 -49 7 -105t-50 -95z" />
    <glyph glyph-name="3sousuo2" unicode="&#xe656;" 
d="M957 635q-11 20 -35 10q-20 -12 -11 -36q59 -106 59 -228q0 -93 -36.5 -178t-98.5 -147t-147 -98.5t-178.5 -36.5t-178.5 37t-146 99t-97.5 148t-36.5 179t36.5 178.5t98.5 147.5t147.5 98.5t178.5 36.5q120 0 218 -57q9 -5 19.5 -2t15.5 13q6 9 3 19.5t-13 16.5
q-111 61 -243 61q-138 0 -256 -69t-187 -187t-69 -256t69 -256t187 -187t256 -69t256 69t187 187t69 256q0 137 -67 251zM591 550q-51 26 -111 17t-101 -52q-54 -54 -54 -132t54 -132t130.5 -54t130.5 54q40 39 50.5 94.5t-9.5 105.5l148 253zM607 289q-41 -40 -96.5 -40
t-96 40.5t-40.5 96t41 95.5q38 39 94.5 39t94.5 -39q40 -40 40.5 -97t-37.5 -95z" />
    <glyph glyph-name="4sousuo2" unicode="&#xe657;" horiz-adv-x="1026" 
d="M852 -13h-673l57 402l-41 -41l-195 195l238 238h126l-3 -26v-18q0 -62 44 -106.5t107 -44.5t107 44t44 107v18l-3 26h126l8 -8l233 -230l-195 -197l-31 30z" />
    <glyph glyph-name="4sousuo1" unicode="&#xe658;" horiz-adv-x="1026" 
d="M827 -13q-19 0 -23 21l-72 504l97 -97l128 130l-192 190h-56q-2 -81 -59.5 -138t-137.5 -57t-137.5 57t-59.5 138h-56l-192 -190l128 -130l107 107l-69 -486h356q9 0 16 -7t7 -16.5t-7 -16t-16 -6.5h-410l57 402l-41 -41l-195 192l238 238h126l-3 -26v-18
q0 -62 44 -106.5t107 -44.5t107 44t44 107v18l-3 26h126l8 -8l233 -230l-195 -197l-31 30l51 -363q2 -10 -4 -18t-16 -8h-5z" />
    <glyph glyph-name="5gouwudai2" unicode="&#xe659;" 
d="M1024 763q0 56 -38.5 94.5t-94.5 38.5h-758q-56 0 -94.5 -38.5t-38.5 -94.5v-758q0 -56 38.5 -94.5t94.5 -38.5h758q56 0 94.5 38.5t38.5 94.5v758zM509.5 394q-117.5 0 -201 83.5t-83.5 200.5q0 11 8 18.5t18 7.5q9 0 17 -8t8 -18q0 -96 68.5 -164.5t164.5 -68.5
t164.5 68.5t68.5 164.5q0 11 8 18.5t18 7.5t18 -8t8 -18q0 -117 -83.5 -200.5t-201 -83.5z" />
    <glyph glyph-name="5gouwudai" unicode="&#xe65a;" 
d="M742 -128h-614q-53 0 -90.5 38t-37.5 90v768q0 53 38 90.5t90 37.5h768q53 0 90.5 -38t37.5 -90v-842q0 -12 -8.5 -20t-20 -8t-19.5 8t-8 20v842q0 31 -22 52.5t-53 21.5h-765q-31 0 -52.5 -21.5t-21.5 -52.5v-768q0 -31 21.5 -52.5t52.5 -21.5h614q12 0 20.5 -8.5
t8.5 -19.5q0 -12 -8.5 -19t-20.5 -7zM502 381q-120 0 -205 84.5t-85 205.5q0 11 8.5 19.5t20 8.5t20 -8.5t8.5 -19.5q0 -97 69 -166.5t166 -69.5q98 0 167 69t69 167q0 11 8 19.5t20 8.5t20 -8.5t8 -19.5q-6 -120 -91 -205t-203 -85z" />
    <glyph glyph-name="6wo2" unicode="&#xe65b;" 
d="M515 891q-125 0 -214 -88.5t-89 -213.5q0 -85 43.5 -156t115.5 -110q-135 -39 -232.5 -143.5t-125.5 -246.5q-2 -11 4.5 -21t18.5 -12h5q10 0 18 7t10 16q31 158 156.5 261t286.5 103q125 0 213.5 88.5t88.5 213.5q0 126 -87 214t-212 88zM783 269q-9 6 -20.5 4
t-17.5 -12q-6 -9 -4 -21t12 -17q78 -50 131.5 -127t72.5 -168q2 -9 10.5 -16t18.5 -7h5q11 2 18 12t5 22q-21 101 -81.5 187.5t-149.5 142.5z" />
    <glyph glyph-name="6wo" unicode="&#xe65c;" 
d="M515 891q-125 0 -214 -88.5t-89 -213.5q0 -85 43.5 -156t115.5 -110q-135 -39 -232.5 -143.5t-125.5 -246.5q-2 -11 4.5 -21t18.5 -12h5q10 0 18 7t10 16q31 158 156.5 261t286.5 103q125 0 213.5 88.5t88.5 213.5q0 126 -87 214t-212 88zM515 346q-102 0 -174 72
t-72 173.5t72 173.5t173.5 72t173.5 -72t72 -174q0 -101 -72.5 -173t-172.5 -72zM783 269q-9 6 -20.5 4t-17.5 -12q-6 -9 -4 -21t12 -17q78 -50 131.5 -127t72.5 -168q2 -9 10.5 -16t18.5 -7h5q11 2 18 12t5 22q-21 101 -81.5 187.5t-149.5 142.5z" />
    <glyph glyph-name="8pinglun" unicode="&#xe65d;" 
d="M896 896h-768q-48 0 -88 -40t-40 -88v-540q0 -48 40 -87t88 -39h256l128 -222l128 222h256q46 0 74 37t28 86v543q0 51 -28 89.5t-74 38.5zM947 225q0 -29 -13 -50t-38 -21h-287l-97 -172l-97 172h-287q-27 0 -52 23t-25 48v543q0 27 25 52t52 25h768q25 0 38 -23.5
t13 -53.5v-543zM512 548q-23 0 -41 -17.5t-18 -41.5t17 -41.5t42 -17.5t42 17t17 42q0 24 -18 41.5t-41 17.5zM258.5 548q-23.5 0 -41 -17.5t-17.5 -41.5t17 -41.5t42 -17.5t41.5 17t16.5 42q0 24 -17.5 41.5t-41 17.5zM765 548q-23 0 -40.5 -17.5t-17.5 -41.5t17 -41.5
t41 -17.5t41.5 17t17.5 42t-17 42t-42 17z" />
    <glyph glyph-name="7dianzan2" unicode="&#xe65e;" 
d="M977 419q-19 23 -49 32t-46 9h-227q9 42 20.5 143t12.5 161q0 53 -46 92q-29 23 -66 33.5t-72 4.5q-21 -4 -38 -19t-25.5 -32t-14.5 -35.5t-7.5 -28.5t-1.5 -13q-10 -75 -30 -134t-40.5 -90t-42.5 -51t-34.5 -25.5t-18.5 -5.5h-102q-41 0 -69 -26.5t-28 -68.5v-393
q0 -41 28.5 -70.5t68.5 -29.5h537q21 0 40.5 4.5t33.5 12t25.5 16.5t19 18.5t13 17t8.5 13l3 5.5l161 373l2 8q9 43 -15 79z" />
    <glyph glyph-name="7dianzan" unicode="&#xe65f;" 
d="M977 419q-19 23 -49 32t-46 9h-227q9 42 20.5 143t12.5 161q0 53 -46 92q-29 23 -66 33.5t-72 4.5q-21 -4 -38 -19t-25.5 -32t-14.5 -35.5t-7.5 -28.5t-1.5 -13q-10 -75 -30 -134t-40.5 -90t-42.5 -51t-34.5 -25.5t-18.5 -5.5h-102q-41 0 -69 -26.5t-28 -68.5v-393
q0 -41 28.5 -70.5t68.5 -29.5h537q21 0 40.5 4.5t33.5 12t25.5 16.5t19 18.5t13 17t8.5 13l3 5.5l161 373l2 8q9 43 -15 79zM103 -28v393q0 21 13 32.5t33 11.5h82v-486h-82q-19 0 -32.5 14.5t-13.5 34.5zM941 350l-161 -371q0 -1 -3 -6.5t-10.5 -14t-17.5 -16.5t-27 -13.5
t-36 -5.5h-404v498q18 7 36 18t41.5 37t43 61t37.5 93.5t29 130.5q0 3 0.5 8t4 18t8 23.5t13.5 19.5t20 10q23 4 49 -3.5t45 -24.5q28 -22 28 -53q-1 -29 -4.5 -73t-9 -86.5t-10.5 -80.5t-8.5 -62.5l-3.5 -24.5l-5 -26h286q11 0 28.5 -6.5t25.5 -16.5q2 0 4 -4t3 -11.5
t-2 -17.5z" />
    <glyph glyph-name="9fenxiang" unicode="&#xe660;" 
d="M1024 -128h-1024v1024h484q11 0 18 -7t7 -18.5t-7 -18.5t-18 -7h-433v-922h922v433q0 11 7 18t18.5 7t18.5 -7t7 -18v-484zM340.5 187q-10.5 0 -18 7.5t-7.5 18t8 17.5l657 658q8 8 18.5 8t18 -7.5t7.5 -18t-8 -18.5l-658 -657q-7 -8 -17.5 -8zM998.5 602
q-11.5 0 -18.5 7t-7 18v243q0 12 7 19t18.5 7t18.5 -7t7 -19v-243q0 -11 -7 -18t-18.5 -7zM998 845h-243q-11 0 -18 7t-7 18.5t7 18.5t18 7h243q12 0 19 -7t7 -18.5t-7 -18.5t-19 -7z" />
    <glyph glyph-name="10shoucang" unicode="&#xe661;" horiz-adv-x="1025" 
d="M246 -108q-28 0 -49 16q-45 32 -31 112l13 82q10 56 -13 127t-64 111l-58 59q-58 58 -39 110q20 53 97 64l82 13q57 8 117 52t86 94l35 74q36 72 93 72q21 0 46 -15.5t46 -56.5l33 -76q25 -52 85 -95.5t117 -50.5l82 -13q75 -11 97 -64q20 -52 -38 -110l-61 -59
q-41 -41 -64 -111t-13 -127l13 -82q14 -75 -31 -113q-10 -8 -23 -12t-38.5 -1t-53.5 18l-75 39q-49 27 -123.5 27t-124.5 -27l-74 -39q-40 -18 -69 -18zM466 781l-36 -74q-31 -64 -101 -114.5t-140 -60.5l-81 -12q-51 -9 -54 -31q-5 -26 25 -56l59 -59q50 -50 77 -131.5
t15 -150.5l-12 -82q-8 -44 10 -61q21 -13 61 7l75 39q63 33 149 33t147 -33l75 -39q43 -21 61 -7q17 10 13 61l-15 82q-12 69 15 151.5t77 130.5l59 59q33 33 25 56q-7 22 -54 31l-81 12q-70 10 -140 60.5t-101 114.5l-36 74q-22 43 -46 43q-26 0 -46 -43z" />
    <glyph glyph-name="10shoucang2" unicode="&#xe662;" horiz-adv-x="1025" 
d="M246 -108q-28 0 -49 16q-45 32 -31 112l13 82q10 56 -13 127t-64 111l-58 59q-58 58 -39 110q20 53 97 64l82 13q57 8 117 52t86 94l35 74q36 72 93 72q21 0 46 -15.5t46 -56.5l33 -76q25 -52 85 -95.5t117 -50.5l82 -13q75 -11 97 -64q20 -52 -38 -110l-61 -59
q-41 -41 -64 -111t-13 -127l13 -82q14 -75 -31 -113q-10 -8 -23 -12t-38.5 -1t-53.5 18l-75 39q-49 27 -123.5 27t-124.5 -27l-74 -39q-40 -18 -69 -18z" />
    <glyph glyph-name="12gouwudai" unicode="&#xe663;" 
d="M714 420q-11 0 -18 7t-7 18v226q0 71 -51 122.5t-123 51.5t-123.5 -51t-51.5 -123v-226q0 -11 -7 -18t-18.5 -7t-18.5 7t-7 18v226q0 94 65.5 159.5t160 65.5t160 -65.5t65.5 -159.5v-226q0 -9 -8 -17t-18 -8zM922 -128h-817q-31 0 -56 26q-22 22 -18 58l61 561
q4 29 25 48t49 19h692q28 0 49 -19t25 -48l61 -561q4 -28 -18 -58q-21 -26 -53 -26zM166 530q-19 0 -23 -21l-61 -560q0 -8 5 -18q8 -8 18 -8h817q10 0 18 8t5 18l-62 560q-4 21 -23 21h-694zM259 402v0q0 -23 16.5 -39.5t39.5 -16.5t39.5 16.5t16.5 39.5v0v0
q0 23 -16.5 39.5t-39.5 16.5t-39.5 -16.5t-16.5 -39.5v0zM658 402v0q0 -23 16.5 -39.5t40 -16.5t40 16.5t16.5 39.5v0v0q0 23 -16.5 39.5t-40 16.5t-40 -16.5t-16.5 -39.5v0z" />
    <glyph glyph-name="11fanhuisvg" unicode="&#xe664;" 
d="M973 302h-873q-12 0 -19 7t-7 18.5t7 18.5t19 7h873q11 0 18 -7t7 -18.5t-7 -18.5t-18 -7zM425 -10q-10 0 -15 5l-374 312q-8 8 -9 18t6 18q8 8 18 9t18 -6l374 -313q8 -8 9 -18t-7 -18q-11 -7 -20 -7zM51 302q-13 0 -20 10q-8 8 -7 19t9 17l374 312q8 8 19 7t17 -9
q7 -8 6 -19t-9 -17l-373 -315q-6 -5 -16 -5z" />
    <glyph glyph-name="13zixun" unicode="&#xe665;" 
d="M858 -72h-136q-12 0 -19 7t-7 18.5t7 19t19 7.5h136q28 0 48.5 20t20.5 49q0 11 7 18t18.5 7t18.5 -7t7 -18q0 -50 -35 -85.5t-85 -35.5zM842 515q-11 0 -18 7t-7 18q0 126 -90 215.5t-215 89.5t-215 -89.5t-90 -215.5q0 -11 -7 -18t-18.5 -7t-18.5 7t-7 18q0 97 48 179
t130 129.5t178 47.5t178 -47.5t130 -129.5t48 -179q0 -9 -8 -17t-18 -8zM192 97q-79 0 -135.5 57t-56.5 135.5t56.5 135t135.5 56.5q12 0 19 -7t7 -18.5t-7 -18.5t-19 -7q-58 0 -99.5 -41.5t-41.5 -99t41.5 -99.5t99.5 -42q12 0 19 -7t7 -18t-8 -18.5t-18 -7.5zM192 97
q-12 0 -19 7t-7 19v333q0 11 7 18t19 7t19 -7t7 -18v-333q0 -11 -8 -18.5t-18 -7.5zM832 105q-12 0 -19 7t-7 18.5t7 18.5t19 7q58 0 99.5 41.5t41.5 99.5t-41.5 99.5t-99.5 41.5q-12 0 -19 7t-7 18.5t7 18.5t19 7q79 0 135.5 -56.5t56.5 -135.5t-56.5 -135.5t-135.5 -56.5z
M832 105q-12 0 -19 7t-7 19v332q0 12 7 19t19 7t19 -7t7 -19v-332q0 -10 -8 -18t-18 -8zM655.5 -128q-38.5 0 -66.5 27.5t-28 67.5t27 67t67.5 27t67.5 -27t27 -67t-28 -67.5t-66.5 -27.5zM655.5 10q-17.5 0 -30.5 -13t-13 -30.5t13 -30.5t30.5 -13t30.5 13t13 30.5
t-13 30.5t-30.5 13z" />
    <glyph glyph-name="15xiaoxi" unicode="&#xe666;" 
d="M207 419.5q0 -26.5 19.5 -45t47 -18.5t47 18.5t19.5 45t-19.5 45.5t-47 19t-47 -19t-19.5 -45.5zM456 419.5q0 -26.5 19.5 -45t47 -18.5t47 18.5t19.5 45t-19.5 45.5t-47 19t-47 -19t-19.5 -45.5zM701 419.5q0 -26.5 19.5 -45t47.5 -18.5t47.5 18.5t19.5 45t-19.5 45.5
t-47.5 19t-47.5 -19t-19.5 -45.5zM893 -87l-222 113q-69 -21 -159 -21q-104 0 -198.5 34.5t-163.5 92.5t-109.5 138t-40.5 167.5t40.5 168t109.5 138.5t163.5 92t198.5 34t198.5 -34t163.5 -92t109.5 -138.5t40.5 -167.5q0 -100 -49.5 -187t-139.5 -151zM676 82l130 -67
l-33 108l21 13q84 54 131.5 133t47.5 169q0 103 -62 191t-168 139t-231 51t-231 -51t-168 -139t-62 -191t62 -191t168 -139.5t231 -51.5q72 0 146 21z" />
    <glyph glyph-name="14shouji" unicode="&#xe667;" 
d="M847 -128h-668q-32 0 -54.5 22t-22.5 55v870q0 33 22.5 55t54.5 22h668q33 0 55 -22t22 -55v-870q0 -32 -22.5 -54.5t-54.5 -22.5zM179 845q-11 0 -18 -7t-7 -19v-870q0 -12 7 -19t18 -7h668q12 0 19 7t7 19v870q0 12 -7 19t-19 7h-668zM461 41q0 -21 15 -36t36 -15
t36 15t15 36v0q0 21 -15 36t-36 15t-36 -15t-15 -36v0zM758 169h-487v561h487v-561zM320 220h384v458h-384v-458z" />
    <glyph glyph-name="17yanjing" unicode="&#xe668;" horiz-adv-x="1026" 
d="M27 353q-8 0 -13 3q-20 12 -10 36q6 10 12.5 20t30 41.5t47.5 58t64 61t80.5 60t95 45.5t110.5 26q284 27 576 -307q7 -8 6 -18t-9 -18q-8 -7 -18 -6t-17 9q-274 316 -533 289q-48 -5 -94.5 -22.5t-82.5 -39t-71.5 -51.5t-58 -54t-45 -52.5t-30 -40t-15.5 -24.5l-2 -3
q-9 -13 -23 -13zM487 54q-28 0 -43 2q-40 4 -79 15t-71.5 26.5t-64 35.5t-56.5 40.5t-49 43.5t-41 43t-32.5 39.5t-24.5 32.5t-15.5 23.5l-6.5 10.5q-6 10 -3 20t13 16t20 2.5t16 -12.5l2 -3q8 -13 15.5 -24.5t30 -40.5t45 -52.5t58 -53.5t71.5 -52t82.5 -39t94.5 -22
q256 -27 533 289q7 8 17 9t18 -6q8 -8 9 -18t-6 -18q-269 -307 -533 -307zM513 215q-67 0 -115.5 48.5t-48.5 115.5t48.5 115.5t115.5 48.5t115.5 -48.5t48.5 -115.5t-48.5 -115.5t-115.5 -48.5zM513 494q-46 0 -79.5 -33t-33.5 -79.5t33.5 -79.5t79.5 -33t79.5 33
t33.5 79.5t-33.5 79.5t-79.5 33z" />
    <glyph glyph-name="17yanjing2" unicode="&#xe669;" horiz-adv-x="1026" 
d="M1011 397q-286 333 -568 302q-76 -7 -148.5 -41.5t-120 -74.5t-87.5 -86.5t-56 -70.5t-21 -34l-7 -13l7 -13l7 -10t15.5 -23t23.5 -32.5t32 -39.5t40.5 -42.5t48 -43t55.5 -40.5t63 -35.5t70.5 -26t77.5 -14.5q15 -3 43 -3q263 0 525 305l16 15zM512 243q-58 0 -98 40.5
t-40 98t40 98t98 40.5t98 -40.5t40 -98t-40 -98t-98 -40.5z" />
    <glyph glyph-name="16suo" unicode="&#xe66a;" 
d="M840 -128h-663q-31 0 -53 22t-22 52v443q0 31 22 52.5t53 21.5h663q30 0 52 -21.5t22 -52.5v-443q0 -30 -22 -52t-52 -22zM177 412q-10 0 -16.5 -6.5t-6.5 -16.5v-443q0 -9 6.5 -16t16.5 -7h663q9 0 16 7t7 16v443q0 10 -7 16.5t-16 6.5h-663zM771 433q-12 0 -19 7t-7 18
v149q0 98 -69 168t-167 70q-97 0 -167.5 -70t-70.5 -168v-149q0 -11 -7 -18t-18.5 -7t-18.5 7t-7 18v149q0 119 84.5 204t204.5 85q119 0 204.5 -85t85.5 -204v-149q-2 -10 -10 -17.5t-18 -7.5zM540 202v8q0 19 -10 34t-23 15q-14 0 -23.5 -14t-9.5 -35v-8q-16 -8 -26 -24
t-10 -35q0 -27 19.5 -46.5t46.5 -19.5t47 19.5t20 46.5q7 36 -31 59z" />
    <glyph glyph-name="18dingwei" unicode="&#xe66b;" 
d="M532 -128h-28l-7 10q-1 1 -18.5 26.5t-40.5 59.5t-53 79.5l-60 91t-56.5 88t-46.5 76.5t-27 50q-28 65 -36 96t-8 78q0 100 49 185t134 134.5t185.5 49.5t185.5 -49.5t134 -134.5t49 -185q0 -45 -8 -77.5t-35 -96.5q-23 -52 -154 -250t-151 -221zM520 845q-87 0 -160 -43
t-115.5 -116t-42.5 -159q0 -41 6.5 -67t32.5 -86q18 -44 109 -181.5t170 -251.5q79 114 169.5 251.5t109.5 181.5q25 60 31.5 86t6.5 67q0 86 -42.5 159t-116 116t-158.5 43zM520 328q-71 0 -121.5 50t-50.5 121t50.5 121.5t121.5 50.5t121 -50.5t50 -121.5t-50 -121
t-121 -50zM520 622q-50 0 -85.5 -35t-35.5 -85t35.5 -85.5t85.5 -35.5t85 35.5t35 85.5t-35 85t-85 35z" />
    <glyph glyph-name="20zhifubao" unicode="&#xe66c;" horiz-adv-x="1031" 
d="M520 788v-128q0 -3 0.5 -4t4.5 -1h271l3 -2v-31l-3 -2h-276q-5 0 -5 -6v-82v-2.5t2 0.5h228q4 0 4.5 -0.5t0.5 -4.5q-21 -88 -66 -187q-4 -9 -13 -25.5t-13 -25.5q0 -2 -1.5 -3t-1.5 -2q3 0 3 -3q37 -11 110 -35.5t110 -36.5q72 -20 105 -28q26 -5 38 -5q3 0 3 -2v-187
q-3 0 -5 2l-207 100q-118 56 -177 87q-1 1 -5 2.5t-5 2.5q-11 5 -16 5l-15 5l-5 -5q-54 -61 -113 -102q-69 -48 -164 -64q-51 -9 -92 -5q-15 0 -30 1.5t-39.5 6t-30.5 5.5q-24 3 -46 25q-50 47 -69 110q-5 26 -5 36v5v5v5q0 21 10 52q25 61 87 102q29 19 75 28q43 9 81 5
q60 -6 64 -7q60 -10 144 -36q11 -3 79 -28q1 0 2 -1q3 -1 3 3q22 44 41 90q12 31 16 61q0 8 5 11q2 2 2 7l-5 3h-430q-5 0 -5 5v28q0 4 0.5 4.5t4.5 0.5h207q3 0 3 3v82q0 5 -5 5h-251q-3 0 -3 2v31q0 3 3 3h248q4 0 4.5 0.5t0.5 4.5v128q54 -11 139 -11zM509 241q-1 0 -2 1
t-3 1q-23 12 -28 13q-104 47 -179 56q-41 5 -64 5q-44 0 -82 -7q-31 -5 -43 -13q-37 -16 -52 -49q-22 -44 -2 -94q12 -33 38 -52q11 -8 33 -12q62 -20 126 -16q48 5 82 18q63 23 115 74q9 8 17.5 17t20.5 23.5t16 18.5z" />
    <glyph glyph-name="19weixinzhifu" unicode="&#xe66d;" 
d="M0 407v3v5v23q4 40 15 79q30 98 100 172q88 95 225 140q69 22 146 26q60 4 121 -8q51 -8 97 -25q121 -43 207 -133q4 -4 10.5 -12t10.5 -11q-1 0 -2.5 -1.5t-2.5 -1.5q-41 -20 -62 -28q-286 -133 -430 -197q-42 -19 -82 5q-10 6 -29 19t-30 19q-6 5 -41 28
q-9 6 -14.5 2.5t-5.5 -14.5v-3q5 -26 10 -38q13 -31 38.5 -91t38.5 -91q12 -27 36 -23q16 0 28 8q31 15 87 51q78 46 233 138t233 138q5 4 16.5 10.5t16.5 10.5q0 -2 1.5 -3t1.5 -2q11 -23 13 -29q43 -94 35 -192q-3 -42 -15 -84q-26 -90 -92 -164q-76 -84 -184 -128
q-69 -25 -123 -36q-43 -7 -82 -7h-46q-10 1 -30 2t-29 3q-49 8 -90 23h-7q-7 -4 -18.5 -11.5t-17.5 -11.5q-44 -28 -82 -49q-10 -5 -18 -5q-10 0 -10 10q0 13 2 18q4 31 21 113q0 7 -5 10q-6 4 -15 11.5t-17 14t-15 12.5q-80 72 -117 167q-15 41 -23 89q-3 13 -3 41
q-5 0 -5 8z" />
    <glyph glyph-name="yuanquan" unicode="&#xe66e;" 
d="M498 -98q-99 0 -189.5 39t-156 104.5t-104.5 156t-39 189.5t39 189.5t104.5 156t156 104.5t189.5 39t190 -39t156 -104.5t104 -156t39 -189.5t-39 -189.5t-104 -156t-156 -104.5t-190 -39zM498 833q-90 0 -172 -35t-141 -94t-94 -141t-35 -172t35 -172t94 -141t141 -94
t172 -35t172 35t141 94t94 141t35 172t-35 172t-94 141t-141 94t-172 35z" />
    <glyph glyph-name="shezhi" unicode="&#xe66f;" 
d="M654 -65q-39 0 -61 25q-16 18 -39.5 33.5t-41.5 15.5q-17 0 -41.5 -16.5t-37.5 -32.5q-18 -17 -44 -22.5t-49 4.5l-3 2l-116 65q-23 16 -30.5 42.5t4.5 53.5q10 18 10 37q0 40 -29 69t-69 29h-7q-24 0 -41 16.5t-22 46.5q-9 37 -9 95q0 24 4.5 59.5l4.5 35.5
q5 28 22.5 45.5t40.5 17.5h2q41 0 69.5 29t28.5 69q0 19 -9 37q-11 23 -3 50.5t31 42.5l2 3l123 67q25 10 50.5 4.5t43.5 -23.5q16 -16 39.5 -31t39.5 -15t39 15t40 31q17 18 43.5 23t49.5 -4l2 -5l119 -65q22 -15 30 -43t-2 -52q-9 -28 -9 -37q0 -41 28.5 -69.5t68.5 -28.5
h5q23 0 40.5 -17t22.5 -46q9 -37 9 -95q0 -24 -4.5 -59.5t-4.5 -36.5q-5 -28 -22.5 -45.5t-40.5 -17.5h-7q-40 0 -69 -28.5t-29 -68.5q0 -9 3 -19.5t6 -18.5q11 -24 3.5 -51.5t-28.5 -43.5l-2 -2l-121 -63q-18 -7 -33 -7zM512 56q49 0 114 -65q7 -7 19 -10t21 0l116 66
q9 6 12 17t0 20v2q-12 23 -12 54q0 59 42.5 101.5t101.5 42.5h5q11 0 19 23q0 1 2 15.5t4.5 35t2.5 36t-2.5 35.5t-4.5 34.5t-2 15.5q-4 24 -17 24h-4q-60 0 -102.5 42.5t-42.5 101.5q0 33 12 56q5 10 2 21t-11 16l-114 63q-23 10 -40 -7q-60 -61 -111.5 -61t-111.5 61
q-7 7 -19 10t-21 -1l-119 -65q-9 -5 -11.5 -16t2.5 -21q12 -28 12 -56q0 -59 -42.5 -101.5t-102.5 -42.5h-9q-11 0 -19 -24q0 -1 -2 -15.5t-4.5 -34.5t-2.5 -35.5t2.5 -36t4.5 -35t2 -15.5q4 -23 17 -23h4q60 0 102.5 -42.5t42.5 -101.5q0 -13 -3 -26t-6 -21.5l-3 -8.5
q-9 -27 9 -37l112 -63q23 -10 40 7q65 65 116 65zM514.5 212q-76.5 0 -130.5 54t-54 130t54.5 129.5t129.5 53.5q77 0 130.5 -54t53.5 -129.5t-53.5 -129.5t-130 -54zM514.5 535q-57.5 0 -97.5 -40.5t-40 -96.5t40.5 -96.5t96.5 -40.5t97 40.5t41 96.5t-40 96.5t-97.5 40.5z
" />
    <glyph glyph-name="daifahuo" unicode="&#xe670;" 
d="M975 81h-67v47h62q7 14 7 21v607h-544q-12 0 -14 -2v-149q0 -26 -13 -42t-34 -16h-170q-71 0 -113 -57.5t-42 -156.5v-184q2 -4 9 -11.5t11 -9.5h73v-47h-73q-22 0 -44.5 22.5t-22.5 45.5v184q0 119 55 189.5t147 70.5h168q0 1 1 4.5t1 7.5v154q0 18 15 31t46 13h542
q20 0 32 -9t14.5 -17.5t2.5 -17.5v-610q0 -24 -13 -46t-36 -22zM465 128h140v-47h-140v47zM756.5 -30q-57.5 0 -98.5 41t-41 98.5t41 98.5t98.5 41t98.5 -41t41 -98.5t-41 -98.5t-98.5 -41zM756.5 202q-38.5 0 -66 -27t-27.5 -65.5t27.5 -66t66 -27.5t65.5 27.5t27 66
t-27 65.5t-65.5 27zM304.5 -30q-57.5 0 -98.5 41t-41 98.5t41 98.5t98.5 41t99 -41t41.5 -98.5t-41.5 -98.5t-99 -41zM304.5 202q-38.5 0 -65.5 -27t-27 -65.5t27 -66t65.5 -27.5t66 27.5t27.5 66t-27.5 65.5t-66 27zM419 337h-256v47h209v116h47v-163z" />
    <glyph glyph-name="daishouhuo" unicode="&#xe671;" 
d="M931 326h-838q-30 0 -50 20t-20 50v93q0 29 20 49.5t50 20.5h838q30 0 50 -20.5t20 -49.5v-93q0 -29 -20.5 -49.5t-49.5 -20.5zM93 512q-10 0 -16.5 -6.5t-6.5 -16.5v-93q0 -11 6.5 -17.5t16.5 -6.5h838q10 0 16.5 6.5t6.5 17.5v93q0 10 -6.5 16.5t-16.5 6.5h-838z
M775 -105h-524q-49 0 -82.5 34t-33.5 83v337h47v-337q0 -30 20 -50t49 -20h524q30 0 50 20t20 50v337h46v-337q0 -47 -34.5 -82t-81.5 -35zM431 512h-5l-5 2q-205 91 -209 189q-4 69 102 126q14 6 42 16q82 19 123 -28q26 -31 28 -86.5t-9.5 -100t-27.5 -76.5
q-19 -42 -39 -42zM400 803q-9 0 -32 -5q-7 -1 -33 -11q-79 -43 -77 -82q1 -26 33 -56t66.5 -49.5t68.5 -33.5q12 19 22.5 58t13.5 83t-13 73l-3 3.5t-6 6.5t-8.5 6t-13.5 5t-18 2zM500 510l-4 2q-22 6 -28 56q-4 42 0.5 95t27 112t60.5 84q62 36 145 -17q20 -13 39 -32
q95 -98 63 -172q-13 -31 -46.5 -55t-71 -36.5t-79.5 -20t-66.5 -10t-36.5 -2.5zM612 826q-23 0 -39 -16q-39 -36 -52.5 -122.5t-3.5 -128.5q44 2 89.5 10.5t94 30.5t60.5 52q18 48 -54 123q-9 12 -32 26q-35 25 -63 25z" />
    <glyph glyph-name="bianji1" unicode="&#xe672;" 
d="M854 -81h-714q-44 0 -75.5 31.5t-31.5 75.5v716q0 44 31 75.5t76 31.5h416q11 0 17 -6t6 -16.5t-6 -17t-17 -6.5h-416q-26 0 -43.5 -18t-17.5 -43v-716q0 -25 17.5 -43t43.5 -18h716q25 0 43 18t18 43v416q0 11 6.5 17t17 6t16.5 -6t6 -17v-416q0 -44 -32 -75.5
t-77 -31.5zM219 54q-7 0 -10 2q-8 3 -11.5 12t0.5 18l91 210q3 8 12 11.5t18 -0.5q8 -3 11.5 -12t-0.5 -18l-90 -210q-10 -13 -21 -13zM219 54q-18 0 -21 13q-4 9 -0.5 18t11.5 13l210 91q9 3 18 -0.5t12 -11.5q4 -9 0.5 -18t-11.5 -12l-210 -91q-3 0 -5.5 -1t-3.5 -1z
M426 144q-9 0 -16 7t-7 16.5t7 16.5l432 433l-86 86l-433 -433q-6 -7 -15.5 -7t-16.5 7t-7 16.5t7 16.5l468 467l151 -151l-468 -468q-7 -7 -16 -7zM426 144q-9 0 -16 7l-119 119q-7 7 -7 16.5t7 16.5t16.5 7t15.5 -7l119 -119q7 -7 7 -16.5t-7 -16.5t-16 -7zM861 579
q-9 0 -16 7t-7 16.5t7 16.5l63 63q7 7 7 19q0 9 -5 13l-58 59q-5 4 -14 4t-19 -9l-63 -63q-7 -7 -16 -7t-16 7t-7 16.5t7 16.5l63 63q21 21 48 21q34 0 49 -19l59 -58q18 -19 18 -49q0 -24 -21 -49l-63 -63q-9 -5 -16 -5z" />
    <glyph glyph-name="qianbao" unicode="&#xe673;" 
d="M887 -54h-731q-62 0 -95 38q-38 37 -38 100v635h47v-635q0 -42 23 -68q23 -23 63 -23h728q28 0 48 20t20 48v502q0 28 -20 48t-48 20v46q47 0 80.5 -33.5t33.5 -80.5v-502q2 -47 -31 -81t-80 -34zM887 631h-775q-37 0 -63 25.5t-26 62.5t26 63t63 26h461v-131h314v-46z
M112 761q-18 0 -30 -12t-12 -29.5t12 -30t30 -12.5h414v84h-414zM977 156h-249q-59 0 -100.5 41.5t-41.5 100.5t41.5 100.5t100.5 41.5h249v-47h-249q-40 0 -67.5 -27.5t-27.5 -67.5t27.5 -68t67.5 -28h249v-46zM794 230q-28 0 -48 20t-20 48t20 47.5t48 19.5t47.5 -19.5
t19.5 -47.5t-19.5 -48t-47.5 -20zM793.5 317q-8.5 0 -14.5 -6.5t-6 -15t6 -14.5t14.5 -6t15 6t6.5 14.5t-6.5 15t-15 6.5z" />
    <glyph glyph-name="buoumao" unicode="&#xe674;" 
d="M514 -61h-9q-89 0 -175 54l-239 149q-48 30 -60.5 79.5t13.5 111.5q48 116 145 295q62 118 104 210l21 42l151 -289h89l153 289l21 -42q20 -41 55.5 -111t49.5 -99q105 -200 144 -295q26 -61 13.5 -112t-59.5 -79l-240 -149q-85 -54 -177 -54zM510 -14q80 0 156 47
l239 149q27 16 36.5 42.5t5.5 48.5t-14 41q-48 115 -142 293q-71 136 -86 168l-123 -233h-144l-124 233q-30 -61 -86 -168q-6 -11 -28 -54t-31.5 -61.5t-26.5 -53t-30 -64t-26 -60.5q-37 -93 28 -132l240 -149q79 -47 156 -47z" />
    <glyph glyph-name="fanhui" unicode="&#xe675;" 
d="M284 -121q-9 0 -16 7t-7 16.5t7 16.5l484 481q7 7 16 7t16 -7t7 -16t-7 -16l-484 -482q-7 -7 -16 -7zM770 358q-9 0 -16 7l-486 484q-7 7 -7 16.5t7 16.5t16 7t16 -7l484 -484q7 -7 7 -16.5t-7 -16.5q-3 -7 -14 -7z" />
    <glyph glyph-name="pingjia" unicode="&#xe676;" 
d="M931 -37h-838v838h596q10 0 16.5 -6.5t6.5 -17t-6.5 -17t-16.5 -6.5h-549v-745h744v550q0 10 6.5 16.5t17 6.5t17 -6.5t6.5 -16.5v-596zM372.5 219q-9.5 0 -16.5 7t-7 16t7 16l535 536q7 7 16.5 7t16.5 -7t7 -16.5t-7 -16.5l-535 -535q-7 -7 -16.5 -7z" />
    <glyph glyph-name="shanchu" unicode="&#xe677;" 
d="M230 -54l-218 156l498 703l502 -358l-351 -494zM74 114l170 -121l394 5l312 437l-429 303zM761 131l-465 330l221 311l465 -330z" />
    <glyph glyph-name="tuihuanhuo" unicode="&#xe678;" 
d="M940 575q-14 0 -21 14q-56 115 -164.5 183t-235.5 68q-128 0 -237 -68t-163 -183q-4 -9 -13 -12t-18 0q-8 4 -11.5 13t0.5 17q61 128 181 204t261 76t261 -76t181 -204q4 -8 0.5 -17t-11.5 -13q-3 -2 -10 -2zM519 -93q-141 0 -261 76t-181 203q-4 9 -0.5 18t11.5 12
q9 4 18 0.5t13 -11.5q56 -115 164.5 -183.5t235.5 -68.5t235.5 69t164.5 183q4 8 13 11.5t18 -0.5q8 -3 11.5 -12t-0.5 -18q-61 -127 -181.5 -203t-260.5 -76zM970 538h-7l-172 51q-8 3 -13 11t-3 17q3 8 11 13t17 3l172 -51q9 -4 13.5 -11.5t2.5 -16.5q-1 -7 -7 -11.5
t-14 -4.5zM970 538q-10 0 -16.5 7t-6.5 16l5 179q0 10 7 16.5t16 6.5q10 0 16.5 -7t6.5 -16l-4 -179q0 -10 -7 -16.5t-17 -6.5zM237 161h-7l-172 51q-9 3 -13.5 11t-2.5 17q3 8 11 13t17 3l172 -51q9 -4 13.5 -11.5t2.5 -16.5q-1 -7 -7.5 -11.5t-13.5 -4.5zM61 33v0
q-11 0 -17.5 7t-6.5 16l5 179q0 11 6.5 17t16.5 6t16.5 -7t6.5 -16l-4 -179q-2 -11 -8.5 -17t-14.5 -6zM470 305q-10 0 -16.5 6.5t-6.5 16.5v275q0 10 6.5 16.5t17 6.5t16.5 -6.5t6 -16.5v-275q0 -10 -7 -16.5t-16 -6.5zM675 305h-207q-11 0 -17 6.5t-6 17t6 16.5t17 6h207
q10 0 16.5 -6t6.5 -16.5t-6.5 -17t-16.5 -6.5z" />
    <glyph glyph-name="dingdan" unicode="&#xe679;" 
d="M829 -105h-610q-33 0 -56 23t-23 56v610q0 33 23 56t56 23h610q33 0 56 -23t23 -56v-610q0 -33 -23 -56t-56 -23zM219 617q-14 0 -23.5 -9.5t-9.5 -23.5v-610q0 -14 9.5 -23t23.5 -9h610q13 0 22.5 9t9.5 23v610q0 14 -9.5 23.5t-22.5 9.5h-610zM279 477h536v-46h-536v46
zM279 291h536v-47h-536v47zM279 105h536v-47h-536v47zM768 617h-447q-27 0 -37 21q-7 10 -7 24t7 25l74 142q9 19 29 31.5t41 12.5h233q20 0 40.5 -14t31.5 -33l75 -139q15 -27 0 -49q-14 -21 -40 -21zM321 663h447v3l-74 139q-6 8 -16 14.5t-17 6.5h-233q-7 0 -17 -6
t-13 -12l-75 -142zM545 668q-28 0 -48 19.5t-20 47.5t20 48t48 20t47.5 -20t19.5 -48t-19.5 -47.5t-47.5 -19.5zM544.5 756q-8.5 0 -14.5 -6t-6 -14.5t6 -15t14.5 -6.5t15 6.5t6.5 15t-6.5 14.5t-15 6z" />
    <glyph glyph-name="yuechi" unicode="&#xe67a;" 
d="M838 -116h-652q-29 0 -50.5 21t-21.5 51v435q0 30 21.5 51t50.5 21h652q29 0 50.5 -21t21.5 -51v-438q0 -28 -21.5 -48.5t-50.5 -20.5zM186 417q-10 0 -17.5 -8t-7.5 -18v-438q0 -10 7.5 -17.5t17.5 -7.5h652q10 0 17.5 7.5t7.5 17.5v438q0 10 -7.5 18t-17.5 8h-652z
M770.5 438q-10.5 0 -17 6t-6.5 17v146q0 98 -69.5 166.5t-165.5 68.5t-165.5 -68.5t-69.5 -166.5v-146q0 -11 -6.5 -17t-17 -6t-17 6t-6.5 17v146q0 117 82.5 199.5t199.5 82.5t199.5 -83t82.5 -199v-146q0 -11 -6.5 -17t-17 -6zM512 149zM447 149q0 -27 19 -46t46 -19
t46 19t19 46t-19 46t-46 19t-46 -19t-19 -46zM479 216.5q0 -19.5 10 -33t23 -13.5t23 13.5t10 33t-10 33t-23 13.5t-23 -13.5t-10 -33z" />
    <glyph glyph-name="xiaoxizhongxin" unicode="&#xe67b;" 
d="M279 291h-191q-20 0 -34 6.5t-20 17t-8.5 18.5t-2.5 16v365q0 30 18 48t47 18h587q28 0 49 -19t21 -47v-74q0 -10 -6.5 -16.5t-17 -6.5t-17 6.5t-6.5 16.5v74q0 9 -8 14t-17 5h-585q-18 0 -18 -19v-365q0 -7 2.5 -9.5t15.5 -2.5h191q11 0 17.5 -6t6.5 -16.5t-6.5 -17
t-17.5 -6.5zM233 547h-117q-10 0 -16.5 6.5t-6.5 17t6.5 16.5t16.5 6h117q10 0 16.5 -6t6.5 -16.5t-6.5 -17t-16.5 -6.5zM633 -28q-27 0 -44 28l-44 79q-19 33 -24 42l-2 2q-14 5 -35 5h-137q-30 0 -49 17.5t-19 45.5v365q0 28 19 44.5t49 16.5h586q30 0 49 -17.5t19 -43.5
v-365q0 -28 -19 -45.5t-49 -17.5h-153q-24 0 -33 -5q0 -2 -2 -4q-5 -12 -24 -45l-46 -74q-14 -28 -42 -28zM347 570q-21 0 -21 -14v-365q0 -16 21 -16h137q58 0 72 -24q0 -1 0.5 -2t2 -3t2.5 -4q5 -9 23 -42l44 -79q3 -2 3 -5q0 2 2 5l44 77q6 8 13.5 23t10.5 19l4 9
q14 23 72 23h154q21 0 21 17v367q0 14 -21 14h-584zM908 407h-536q-10 0 -16.5 6.5t-6.5 17t6.5 17t16.5 6.5h536q10 0 16.5 -6.5t6.5 -17t-6.5 -17t-16.5 -6.5z" />
    <glyph glyph-name="weibiaoti-" unicode="&#xe67c;" 
d="M179 840h650h-650zM829 817h-650q-10 0 -16.5 6.5t-6.5 17t6.5 16.5t16.5 6h650q10 0 16.5 -6t6.5 -16.5t-6.5 -17t-16.5 -6.5zM191 333h-19q-55 5 -93 38.5t-53 91.5q-10 38 -10.5 76.5t7 72t18 64t27 57.5t29 47t28.5 38t22.5 25t12.5 13h1q7 7 16 6t16 -8t6 -16
t-8 -16l-6 -6t-15 -16.5t-21 -26t-23.5 -34.5t-24 -42t-20 -48.5t-14 -54t-4 -58t8.5 -61.5q22 -85 105 -96q49 -5 96.5 18.5t61.5 56.5q4 8 13 11.5t17 -0.5q9 -3 12.5 -12t-0.5 -18q-21 -43 -74.5 -72.5t-111.5 -29.5zM819 333q-58 0 -112.5 29t-73.5 71q-4 9 -0.5 18
t12.5 12q8 4 17 0.5t13 -12.5q14 -30 61.5 -53.5t96.5 -20.5q83 10 105 95q14 58 6.5 109t-27 95t-43 75.5t-39.5 49.5t-18 18q-15 15 -2 33q15 15 32 2l1 -1q7 -6 13 -13t22 -25t29 -38t29.5 -47t27 -57t18 -64t6.5 -72t-11 -76q-14 -58 -52 -91.5t-95 -39.5q-4 3 -16 3z
M505 293q-77 0 -124.5 43t-47.5 111v139q0 11 6.5 17.5t17 6.5t16.5 -6.5t6 -17.5v-139q0 -53 37 -80t89 -27t89 27t37 80v139q0 11 6 17.5t16.5 6.5t17 -6.5t6.5 -17.5v-139q0 -68 -48.5 -111t-123.5 -43zM831 -102h-652q-35 0 -59.5 24t-24.5 59v301q0 10 6.5 16.5t17 6.5
t17 -6.5t6.5 -16.5v-301q0 -15 10.5 -26t26.5 -11h652q16 0 26.5 11t10.5 26v301q0 10 6.5 16.5t17 6.5t17 -6.5t6.5 -16.5v-301q0 -33 -25 -58t-59 -25z" />
    <glyph glyph-name="icon-test" unicode="&#xe67d;" 
d="M77 -74l25 386l510 510l33 -33l-496 -498l-23 -317l316 24l463 463l-204 207l32 33l240 -240l-510 -510z" />
    <glyph glyph-name="icon-test1" unicode="&#xe67e;" 
d="M940 -61h-46v862h-724v-808h584v-47h-631v901h817v-908zM317 577h267v-46h-267v46zM317 414h430v-46h-430v46z" />
    <glyph glyph-name="icon-test2" unicode="&#xe67f;" 
d="M549 389h-70q-71 0 -121.5 50t-50.5 122v81h47v-81q0 -52 36.5 -89t88.5 -37h70q53 0 89.5 37t36.5 89v72h46v-72q-1 -72 -51.5 -122t-120.5 -50zM970 -84h-46v885h-822v-822h687v-46h-733v914h914v-931z" />
    <glyph glyph-name="icon-test3" unicode="&#xe680;" 
d="M854 500h47v-584h-47v584zM733 -77h-586v577h46v-530h540v-47zM1001 477h-147v47h100v253h-247q-24 -58 -76 -93t-114.5 -35t-114.5 35t-76 93h-247v-253h114v-47h-160v347h328l4 -16q16 -51 57.5 -81.5t94 -30.5t94 30.5t57.5 81.5l7 16h326v-347z" />
    <glyph glyph-name="icon-test4" unicode="&#xe681;" 
d="M493 333q-111 0 -190.5 79t-79.5 191q0 111 79 189t191 78t191 -79t79 -191q0 -111 -79 -189t-191 -78zM493.5 824q-92.5 0 -158 -65.5t-65.5 -158t65.5 -158t158 -65.5t158 65.5t65.5 158t-65.5 158t-158 65.5zM957 -84h-47q0 104 -48.5 195.5t-135.5 149.5l26 39
q96 -64 150.5 -166.5t54.5 -217.5zM79 -84h-46q0 95 36.5 180.5t98.5 147.5t147.5 98.5t180.5 36.5v-46q-114 0 -210 -56t-151.5 -151.5t-55.5 -209.5z" />
    <glyph glyph-name="weibiaoti-1" unicode="&#xe682;" 
d="M912.5 61q-11.5 0 -18.5 2l-317 102q-21 9 -14 30q9 22 30 14l317 -102q2 -1 3.5 -1t3.5 0.5l2 0.5q5 0 5 7l49 742q0 11 7.5 17t17.5 4q11 0 17 -7.5t4 -17.5l-49 -747q-3 -23 -27 -40q-19 -4 -30.5 -4zM354 242q-5 0 -7 2l-296 105q-31 12 -35 44q-3 33 28 49l943 435
q8 4 17.5 0.5t12.5 -11.5q4 -9 0.5 -18t-12.5 -13l-940 -432l-2 -5q0 -5 4 -5l296 -107q9 -3 13 -12t1 -18q-7 -14 -23 -14zM454 -116q-11 0 -17 6t-6 17v312q0 23 14 37l535 617q7 7 16 8t16 -6q8 -7 8.5 -16t-5.5 -17l-536 -614q-2 -2 -2 -7v-314q0 -10 -7 -16.5t-16 -6.5
zM454 -116q-7 0 -12 4q-8 5 -10 14.5t3 18.5l105 163q5 8 14.5 10t18.5 -3q8 -5 10 -14.5t-4 -18.5l-104 -163q-9 -11 -21 -11z" />
    <glyph glyph-name="fenlei" unicode="&#xe683;" 
d="M931 710h-645q-10 0 -16.5 6.5t-6.5 17t6.5 16.5t16.5 6h645q10 0 16.5 -6t6.5 -16.5t-6.5 -17t-16.5 -6.5zM133 710h-45q-10 0 -16.5 6.5t-6.5 17t6.5 16.5t16.5 6h45q10 0 16.5 -6t6.5 -16.5t-6.5 -17t-16.5 -6.5zM931 347h-645q-10 0 -16.5 6.5t-6.5 17t6.5 16.5
t16.5 6h645q10 0 16.5 -6t6.5 -16.5t-6.5 -17t-16.5 -6.5zM133 347h-45q-10 0 -16.5 6.5t-6.5 17t6.5 16.5t16.5 6h45q10 0 16.5 -6t6.5 -16.5t-6.5 -17t-16.5 -6.5zM931 -19h-645q-10 0 -16.5 6.5t-6.5 17t6.5 17t16.5 6.5h645q10 0 16.5 -6.5t6.5 -17t-6.5 -17t-16.5 -6.5
zM133 -19h-45q-10 0 -16.5 6.5t-6.5 17t6.5 17t16.5 6.5h45q10 0 16.5 -6.5t6.5 -17t-6.5 -17t-16.5 -6.5z" />
    <glyph glyph-name="daoAI-" unicode="&#xe684;" 
d="M522 63q150 0 226 26h2l2 11l14 6v2q1 3 2 8t2 8q9 35 49 323q7 49 13 87.5t9 58.5t4 23q-12 6 -24 6q-13 0 -21 -6q-10 -8 -77 -74l-46 -46l-41 49q-54 64 -110 134q-10 10 -14 10q-6 0 -18 -12q-2 -2 -11 -12.5t-37 -44.5t-62 -75l-39 -49l-48 44q-12 11 -30 28.5
t-30 29t-16 14.5q-6 8 -20 8q-12 0 -24 -6q1 -4 24 -122q10 -48 28 -138.5t31 -154t16 -71.5q5 -20 8 -20l13 -15v-2q74 -28 225 -28zM522 4q-159 0 -244 29q-25 9 -32.5 15.5t-7.5 18.5q-12 12 -19 45q-4 17 -50 249t-49 244q-7 32 18 53t63 21q30 0 55 -15q7 -5 83 -77
q102 126 112 136q29 29 59 29q31 0 57 -29q6 -6 112 -136q81 76 85 79q24 17 55 17q37 0 62.5 -22t18.5 -54q-1 -6 -19 -126.5t-36 -237.5t-22 -131q-1 -5 -3.5 -14.5t-4 -15t-4.5 -11t-8 -8.5q-1 -10 -9 -16t-30 -14q-80 -29 -242 -29z" />
    <glyph glyph-name="daoAI-1" unicode="&#xe685;" 
d="M512 59q176 0 256 26v319h61q-62 64 -266 246q-25 22 -51 47q-25 -25 -91 -83q-154 -139 -226 -208h59v-319q80 -28 258 -28zM512 -2q-187 0 -276 30q-39 13 -39 59v256h-43q-20 0 -30.5 20.5t0.5 44.5q5 12 83.5 86t167 154.5t98.5 89.5q19 20 39 20q22 0 39 -18
q8 -7 96 -85.5t167.5 -153.5t87.5 -91q9 -22 0 -43.5t-30 -21.5h-43v-256q0 -46 -39 -59q-98 -32 -278 -32z" />
    <glyph glyph-name="daoAI-2" unicode="&#xe686;" 
d="M504 49q237 0 327 26q2 2 2 10q0 6 -4 10l-29 27q-253 240 -284 272h-2q-13 -14 -250 -238q-62 -59 -63 -60q-12 -11 -12 -21q85 -26 315 -26zM504 -12q-250 0 -344 30q-32 9 -32 48.5t32 69.5q17 15 156.5 148t158.5 153q13 14 39 14q28 0 39 -14q13 -14 150 -144.5
t165 -156.5q19 -18 21.5 -44t-9.5 -47t-31 -27q-47 -14 -142.5 -22t-202.5 -8zM427 610q0 -11 -8.5 -20t-20.5 -9t-21 9t-9 20q0 65 46.5 111.5t111.5 46.5t111 -46.5t46 -111.5q0 -26 -8 -48t-25 -39t-29.5 -26.5t-33.5 -21.5q-21 -13 -31.5 -22t-10.5 -20v-19h60q23 0 0 0
h-119v19q0 17 5.5 30.5t19.5 26t20 17.5t24 17q38 24 53.5 41t15.5 45q0 42 -28.5 70.5t-69.5 28.5q-42 -2 -70.5 -30.5t-28.5 -68.5v0z" />
    <glyph glyph-name="daoAI-3" unicode="&#xe687;" 
d="M514 406q65 0 111.5 46t46.5 111t-46.5 111.5t-111.5 46.5t-111.5 -46.5t-46.5 -111.5t46.5 -111t111.5 -46zM514 347q-90 0 -153.5 63t-63.5 153t63.5 153.5t153.5 63.5t153.5 -63.5t63.5 -153.5t-63.5 -153t-153.5 -63zM514 41q208 0 291 26q4 8 4 24q0 59 -23.5 105.5
t-63 74t-87.5 42t-101 14.5h-40q-53 0 -101 -14.5t-88 -42t-63 -74t-23 -105.5q0 -20 2 -24q83 -26 293 -26zM514 -18q-226 0 -315 30q-39 12 -39 79q0 90 45 158t120.5 102.5t168.5 34.5h40q93 0 168.5 -34.5t120.5 -102.5t45 -158q0 -66 -39 -79q-89 -30 -315 -30z" />
    <glyph glyph-name="daoAI-4" unicode="&#xe688;" 
d="M512 53q78 0 136.5 6.5t78.5 15.5v441l100 -100l108 108l-187 173h-17l-8 4h-81q-14 -44 -49.5 -71t-82 -27t-82.5 27t-50 71h-81l-9 -6h-12l-187 -175l108 -108l100 100v-439q22 -7 80.5 -13.5t134.5 -6.5zM512 -6q-180 0 -242 30q-34 15 -34 49v301l-13 -14
q-12 -11 -28 -11t-28 11l-137 138q-12 12 -12 28t12 27l206 189q13 13 40 16q6 4 13 4h146q-2 -6 -2 -20q0 -32 23.5 -55t55.5 -23t55.5 23t23.5 55q0 14 -2 20h146q7 0 13 -6q24 0 40 -16l204 -191q12 -11 12 -27t-12 -28l-137 -138q-12 -11 -28 -11t-27 11l-12 18v-301
q0 -15 -10.5 -29t-23.5 -20q-65 -30 -242 -30z" />
    <glyph glyph-name="-" unicode="&#xe689;" 
d="M512 663l465 -558h-930z" />
    <glyph glyph-name="-1" unicode="&#xe68a;" 
d="M512 105l-465 558h930z" />
    <glyph glyph-name="weibiaoti--" unicode="&#xe68b;" 
d="M753 -15v82q0 37 15 79l8 23l18 15q61 46 94.5 107.5t33.5 128.5q0 87 -55 161t-149.5 117.5t-205.5 43.5t-205.5 -43.5t-149.5 -117.5t-55 -161q0 -88 55 -162.5t149.5 -117.5t205.5 -43q26 0 38 3l21 2l18 -10q7 -5 23 -10q5 -3 13.5 -7t15 -7t12.5 -7q27 -17 71 -53
q18 -18 29 -23q-4 0 0 0zM776 -102q-34 0 -69 25q-82 62 -98 72q-5 4 -53 25q-8 0 -22 -1t-22 -1q-132 0 -244 53.5t-177 145.5t-65 200q0 110 65 202.5t177 146t244 53.5t244 -53.5t177 -145.5t65 -200q0 -87 -42 -163.5t-116 -133.5q-11 -27 -11 -56v-98q-3 -71 -53 -71z
" />
    <glyph glyph-name="weibiaoti--1" unicode="&#xe68c;" 
d="M819 -26q12 0 19 7t7 19v358q0 54 -37 91t-91 37h-305l62 113l105 195h-41q-16 0 -36 -6l-218 -378q0 -26 3 -46l2 -13l-2 -13q-5 -10 -5 -31v-333h537zM819 -102h-614v409q0 16 5 46q-4 25 -3.5 51.5t5.5 35.5l231 400q10 15 39 22.5t56 7.5h102q19 0 28 -28.5t-2 -47.5
l-126 -231h177q84 0 144.5 -60t60.5 -145v-358q0 -42 -30.5 -72t-72.5 -30zM205 -26v410h-26q-11 0 -18 -7t-7 -19v-358q0 -12 7 -19t18 -7h26zM230 -102h-51q-42 0 -72 30t-30 72v358q0 43 30 73t72 30h51q22 0 37 -15t15 -36v-461q0 -21 -15 -36t-37 -15z" />
    <glyph glyph-name="weibiaoti--2" unicode="&#xe68d;" 
d="M776 -102q-34 0 -69 25q-82 62 -98 72q-5 4 -53 25q-8 0 -22 -1t-22 -1q-132 0 -244 53.5t-177 145.5t-65 200q0 110 65 202.5t177 146t244 53.5t244 -53.5t177 -145.5t65 -200q0 -87 -42 -163.5t-116 -133.5q-11 -27 -11 -56v-98q-3 -71 -53 -71z" />
    <glyph glyph-name="weibiaoti--3" unicode="&#xe68e;" 
d="M832 -102h-614v409q0 16 5 46q-10 67 2 87l231 400q18 30 94 30h103q19 0 28 -28.5t-3 -47.5l-125 -231h177q84 0 144 -60t60 -145v-358q0 -42 -30 -72t-72 -30zM243 -102h-51q-42 0 -72 30t-30 72v358q0 43 30 73t72 30h51q21 0 36 -15t15 -36v-461q0 -21 -15 -36
t-36 -15z" />
    <glyph glyph-name="icon-test5" unicode="&#xe68f;" 
d="M931 91l-65 468q0 16 -13 25t-31 9h-124v56q0 77 -54.5 131.5t-131.5 54.5t-131.5 -54.5t-54.5 -131.5v-56h-124q-19 0 -31.5 -9.5t-12.5 -24.5l-65 -471q0 -5 -2.5 -21.5t-3 -28.5t5.5 -25t21 -18q50 -16 160 -25.5t240 -9.5q128 0 237 9.5t159 25.5q14 6 20 19.5
t5.5 25.5t-2.5 29t-2 22zM372 649q0 58 41 99t99 41t99 -41t41 -99v-56h-280v56zM512 9q-277 0 -379 31q0 3 1 12t1 11q1 4 -3 12t-4 11l58 470v-9h140v-114q-11 -3 -16.5 -10.5t-6 -13t-0.5 -16.5q0 -19 13.5 -32.5t32.5 -13.5t33 13.5t14 32.5q0 10 -12 24t-12 16v123h280
v-123q-11 -3 -16.5 -10.5t-6.5 -13t-1 -16.5q0 -19 14 -32.5t33 -13.5t32.5 13.5t13.5 32.5q0 10 -11.5 24t-11.5 16v114h117v9l67 -470q0 -7 5 -21q0 -3 1 -12.5t1 -12.5q-106 -31 -377 -31z" />
    <glyph glyph-name="icon-test6" unicode="&#xe690;" 
d="M535 826q-126 0 -233 -51.5t-169.5 -140t-62.5 -192.5t62.5 -192.5t169.5 -140t233 -51.5q28 0 42 3q10 -6 28 -14t23 -12l93 -70q14 -10 31.5 -16.5t34.5 -6.5q51 0 51 70v93q0 16 9 53q72 54 113 128t41 156q0 104 -62.5 192.5t-170 140t-233.5 51.5zM819 195l-11 -9
l-5 -14q-12 -42 -12 -67v-93q0 -7 -0.5 -12t-1 -8t-0.5 -4q-12 0 -40 14q-2 1 -11 8.5t-17 12.5q-12 9 -35 27t-30 22q-4 4 -35 19l-23 11l-12 5h-11q-14 -2 -40 -2q-113 0 -209.5 45t-153 123t-56.5 169.5t56.5 169t153 123t210 45.5t210 -45.5t152.5 -123t56 -169.5
q0 -70 -35 -135t-100 -112zM675 570h-279q-11 0 -17.5 -6.5t-6.5 -17t6.5 -16.5t17.5 -6h279q10 0 16.5 6t6.5 16.5t-6.5 17t-16.5 6.5zM675 454h-279q-11 0 -17.5 -6.5t-6.5 -17t6.5 -17t17.5 -6.5h279q10 0 16.5 6.5t6.5 17t-6.5 17t-16.5 6.5zM675 337h-279
q-11 0 -17.5 -6t-6.5 -16.5t6.5 -17t17.5 -6.5h279q10 0 16.5 6.5t6.5 17t-6.5 16.5t-16.5 6z" />
    <glyph glyph-name="icon-test7" unicode="&#xe691;" 
d="M968 475q-3 19 -14.5 32.5t-24.5 13.5v3h-5q-51 0 -86 34t-35 84q0 11 2.5 22t5 17t4.5 8q7 17 1.5 36t-20.5 29h-2l-117 65h-2q-14 5 -23 5q-26 0 -45 -19q-53 -53 -95 -53t-95 53q-14 21 -42 21q-12 0 -21 -4h-3l-121 -68q-16 -11 -21.5 -30.5t3.5 -36.5q11 -24 11 -45
q0 -50 -35 -84t-86 -34h-4v-3q-14 0 -25 -12.5t-15 -31.5l-1 -6.5t-2 -16t-2.5 -21t-2.5 -25t-1 -24.5t1 -24.5t2.5 -25t2.5 -21t2 -16l1 -6.5q4 -20 15 -33.5t25 -13.5h4q51 0 86 -34.5t35 -83.5q0 -14 -4.5 -29t-6.5 -18q-7 -17 -2 -36t20 -29l114 -65h3q14 -5 23 -5
q26 0 44 19q11 10 24 21t35 23t39 12q24 0 53 -20t45 -39q18 -18 44 -18q12 0 21 4h2l119 66q15 10 20.5 30t-1.5 37q-12 23 -12 44q0 51 35 85t86 34h5q14 0 25 13t14 34l1 6t2.5 16t3 21.5t2 25t0.5 24.5t-0.5 24.5t-2 24.5t-3 21t-2.5 16t-1 7zM922 300q0 -4 -3 -4
q-68 -2 -116.5 -51t-48.5 -117q0 -12 3 -25.5t7 -26.5l4 -13q2 -5 -2 -9l-112 -66h-2q-3 0 -6 1.5t-4 1.5q-72 72 -132.5 72t-132.5 -72q-2 -3 -9 -3h-3l-109 63q-6 6 -2 10q14 41 14 65q0 68 -49 117.5t-117 49.5q0 3 -2 5q0 2 -1.5 16.5t-3.5 34.5t-2 35q0 22 3.5 51
t5.5 33q0 4 3 4q68 2 116.5 51t48.5 117q0 37 -14 65q-3 4 2 9l114 66h3q9 0 9 -5q70 -70 130.5 -70t127.5 68q5 4 10 4h2l114 -60q6 -6 2 -10q-14 -32 -14 -65q0 -68 49 -117.5t117 -49.5q0 -3 2 -5q9 -74 9 -84q-4 -57 -11 -86zM512 547q-68 0 -115.5 -47.5t-47.5 -115.5
t47.5 -115.5t115.5 -47.5t115.5 47.5t47.5 115.5t-47.5 115.5t-115.5 47.5zM512 268q-49 0 -82.5 33.5t-33.5 82.5t33.5 82.5t82.5 33.5t82.5 -33.5t33.5 -82.5t-33.5 -82.5t-82.5 -33.5z" />
    <glyph glyph-name="icon-test8" unicode="&#xe692;" 
d="M575 370l277 277q10 10 10 24t-10.5 24.5t-25.5 10.5t-25 -10l-275 -275l-279 280q-11 8 -26 8t-26 -8q-8 -11 -8 -26t8 -26l280 -279l-280 -279q-10 -11 -10 -25t10.5 -24.5t24.5 -10.5t24 11l280 279l277 -277q10 -10 24 -10t24.5 10.5t10.5 24.5t-11 24z" />
    <glyph glyph-name="icon-test9" unicode="&#xe693;" 
d="M745 198q-33 0 -63 -15t-49 -41l-265 186q4 19 4 33t-2 21l275 184q42 -42 100 -42q57 0 98 41t41 98.5t-41 98.5t-98.5 41t-98.5 -41t-41 -99q0 -14 5 -37l-268 -179q-42 53 -109 53q-58 0 -99 -41t-41 -98.5t41 -98.5t99 -41q59 0 102 47l270 -191q0 -4 -1 -9.5
t-1 -9.5q0 -57 41 -98t98.5 -41t98.5 41t41 98q2 58 -38.5 99t-98.5 41zM744.5 733q29.5 0 50 -20t20.5 -49.5t-20.5 -50t-50 -20.5t-49.5 20.5t-20 50t20 49.5t49.5 20zM232.5 291q-29.5 0 -49.5 20t-20 49.5t20 50t49.5 20.5t50 -20.5t20.5 -50t-20.5 -49.5t-50 -20z
M744.5 -12q-29.5 0 -49.5 20.5t-20 50t20 49.5t49.5 20t50 -20t20.5 -49.5t-20.5 -50t-50 -20.5z" />
    <glyph glyph-name="icon-test10" unicode="&#xe694;" 
d="M512 826q-94 0 -180.5 -37t-148.5 -99.5t-99 -148.5t-37 -180.5t37 -180.5t99 -148.5t148.5 -99.5t180.5 -37t180.5 37t148.5 99.5t99 148.5t37 180.5t-37 180.5t-99 148.5t-148.5 99.5t-180.5 37zM512 -58q-113 0 -209.5 56t-153 152.5t-56.5 210t56.5 210t153 153
t209.5 56.5t209.5 -56.5t153 -153t56.5 -210t-56.5 -210t-153 -152.5t-209.5 -56zM512 491q-4 4 -12 11t-32 20.5t-47 19.5t-54 0t-57 -30q-75 -69 -31 -183q12 -31 14 -31q3 -5 8.5 -13t25.5 -32t43 -46t61.5 -49t80.5 -46v-7q42 19 79.5 46t62 51.5t43 46t26.5 34.5l8 13
q3 5 7.5 14t13 36.5t9.5 52.5t-9.5 57t-37 56t-56.5 30.5t-55 -0.5t-46 -19t-33 -21.5t-12 -10.5z" />
    <glyph glyph-name="icon-test11" unicode="&#xe695;" 
d="M968 475q-3 19 -14.5 32.5t-24.5 13.5v3h-5q-51 0 -86 34t-35 84q0 11 2.5 22t5 17t4.5 8q7 17 1.5 36t-20.5 29h-2l-117 65h-2q-14 5 -23 5q-26 0 -45 -19q-53 -53 -95 -53t-95 53q-14 21 -42 21q-12 0 -21 -4h-3l-121 -68q-16 -11 -21.5 -30.5t3.5 -36.5q11 -24 11 -45
q0 -50 -35 -84t-86 -34h-4v-3q-14 0 -25 -12.5t-15 -31.5l-1 -6.5t-2 -16t-2.5 -21t-2.5 -25t-1 -24.5t1 -24.5t2.5 -25t2.5 -21t2 -16l1 -6.5q4 -20 15 -33.5t25 -13.5h4q51 0 86 -34.5t35 -83.5q0 -14 -4.5 -29t-6.5 -18q-7 -17 -2 -36t20 -29l114 -65h3q14 -5 23 -5
q26 0 44 19q11 10 24 21t35 23t39 12q24 0 53 -20t45 -39q18 -18 44 -18q12 0 21 4h2l119 66q15 10 20.5 30t-1.5 37q-12 23 -12 44q0 51 35 85t86 34h5q14 0 25 13t14 34l1 6t2.5 16t3 21.5t2 25t0.5 24.5t-0.5 24.5t-2 24.5t-3 21t-2.5 16t-1 7zM922 300q0 -4 -3 -4
q-68 -2 -116.5 -51t-48.5 -117q0 -12 3 -25.5t7 -26.5l4 -13q2 -5 -2 -9l-112 -66h-2q-3 0 -6 1.5t-4 1.5q-72 72 -132.5 72t-132.5 -72q-2 -3 -9 -3h-3l-109 63q-6 6 -2 10q14 41 14 65q0 68 -49 117.5t-117 49.5q0 3 -2 5q0 2 -1.5 16.5t-3.5 34.5t-2 35q0 22 3.5 51
t5.5 33q0 4 3 4q68 2 116.5 51t48.5 117q0 37 -14 65q-3 4 2 9l114 66h3q9 0 9 -5q70 -70 130.5 -70t127.5 68q5 4 10 4h2l114 -60q6 -6 2 -10q-14 -32 -14 -65q0 -68 49 -117.5t117 -49.5q0 -3 2 -5q9 -74 9 -84q-4 -57 -11 -86zM512 547q-68 0 -115.5 -47.5t-47.5 -115.5
t47.5 -115.5t115.5 -47.5t115.5 47.5t47.5 115.5t-47.5 115.5t-115.5 47.5zM512 268q-49 0 -82.5 33.5t-33.5 82.5t33.5 82.5t82.5 33.5t82.5 -33.5t33.5 -82.5t-33.5 -82.5t-82.5 -33.5z" />
    <glyph glyph-name="icon-test12" unicode="&#xe696;" 
d="M526 845q-94 0 -180.5 -37t-148.5 -99.5t-99 -148.5t-37 -180.5t37 -180.5t99 -148.5t148.5 -99.5t180.5 -37t180.5 37t148.5 99.5t99 148.5t37 180.5t-36.5 180.5t-98.5 148.5t-148.5 99.5t-181.5 37zM526 -40q-113 0 -209.5 56.5t-153 153t-56.5 210t56.5 210
t153 152.5t209.5 56t209.5 -56t153 -152.5t56.5 -210t-56.5 -210t-153 -153t-209.5 -56.5zM438 398q-24 9 -26 9h-19q6 14 31 63q14 21 25 33q9 9 14 18q3 9 -2 19q-6 6 -16.5 2.5t-23.5 -16.5l-42 -37q-17 -18 -39 -49q-22 -27 -33 -49q-20 -45 -14 -79q4 -42 30 -65
q26 -26 68 -26t70 28q27 27 30 68q0 39 -16 55q-5 4 -18 13t-19 13zM696 398q-23 9 -26 9h-18q5 14 30 63q14 21 25 33q10 9 14 18q3 9 -2 19q-6 6 -16.5 2.5t-22.5 -16.5l-42 -37q-18 -18 -40 -49q-22 -27 -32 -49q-21 -37 -17 -79q3 -38 30 -65q26 -26 68 -26t70 28
q30 30 30 68q0 39 -16 55q-24 19 -35 26z" />
    <glyph glyph-name="icon-test13" unicode="&#xe697;" 
d="M884 361h-654l282 302h-70l-302 -326l23 -23l302 -302h70l-302 302h651v47z" />
    <glyph glyph-name="icon-test14" unicode="&#xe698;" 
d="M535.5 833q-94.5 0 -180.5 -37t-148.5 -99.5t-99.5 -148.5t-37 -180.5t37 -180.5t99.5 -148.5t148.5 -99.5t180.5 -37t180.5 37t148.5 99.5t99.5 148.5t37 180.5t-37 180.5t-99.5 148.5t-148.5 99.5t-180.5 37zM829 74q-59 -58 -135 -89.5t-159 -31.5t-159 32t-134 89
q-59 58 -91 134t-32 160q0 83 31.5 159t89.5 134q59 59 134.5 90t158.5 31t159 -31.5t134 -89.5q59 -59 90 -135t31 -158q4 -83 -27.5 -159t-90.5 -135zM468 451.5q0 34.5 -24.5 59t-59.5 24.5t-59.5 -24.5t-24.5 -59t24.5 -59t59.5 -24.5t59.5 24.5t24.5 59zM351 451.5
q0 13.5 9.5 23t23.5 9.5t23.5 -9.5t9.5 -23t-9.5 -23t-23.5 -9.5q-12 -2 -22.5 8.5t-10.5 24zM768 400l-84 49l84 51q9 6 11.5 16.5t-2.5 19t-15.5 11.5t-19.5 -2l-83 -49l-73 -42l73 -42l83 -49q9 -5 19.5 -2t15.5 11q6 6 3 14.5t-12 13.5zM677.5 293q-10.5 0 -18 -7.5
t-7.5 -17.5q0 -49 -34 -83t-83 -34t-82.5 34t-33.5 83q0 10 -7.5 17.5t-18 7.5t-18 -7.5t-7.5 -17.5q0 -68 48.5 -117t116.5 -49t116.5 49t48.5 117q2 10 -4 17.5t-16.5 7.5z" />
    <glyph glyph-name="icon-test15" unicode="&#xe699;" 
d="M863 540q-71 10 -145.5 63.5t-105.5 117.5q-42 82 -100 82t-100 -84q-31 -64 -105.5 -117.5t-145.5 -63.5q-93 -14 -111.5 -69t48.5 -120q52 -50 79.5 -135.5t15.5 -157.5q-12 -65 11 -102.5t71 -37.5q38 0 81 23q59 33 156 33q91 0 156 -33q43 -23 81 -23q48 0 70 37
t12 103q-12 71 16 156.5t79 136.5q67 66 48.5 121.5t-111.5 69.5zM877 400q-64 -61 -98 -164t-18 -192q7 -36 -2 -56q0 -2 -10 -2q-19 0 -48 16q-84 42 -189 42q-112 0 -189 -42q-29 -16 -48 -16q-7 0 -10 2q-11 12 -2 56q16 87 -18 190t-98 166q-31 31 -31 47q0 2 5 5.5
t18 8.5t31 7q88 12 176 75.5t129 143.5q8 17 17 28.5t13.5 14.5t6.5 3t6.5 -3t13.5 -13.5t17 -27.5q41 -79 129 -143t176 -76q18 -2 31 -7t18 -8.5t5 -5.5q1 -1 -0.5 -7t-9.5 -17.5t-21 -24.5z" />
    <glyph glyph-name="icon-test16" unicode="&#xe69a;" 
d="M784 484h-46q0 103 -66 176t-160 73t-160 -73t-66 -176h-46q0 122 79.5 209t192.5 87t192.5 -87t79.5 -209zM279 158q-74 0 -130 48t-56 115t56 115t130 48v-326zM233 212v219q-41 -13 -67 -43.5t-26 -66.5t26 -65.5t67 -43.5zM745 158v326q74 0 130 -48t56 -115
q0 -66 -56 -114.5t-130 -48.5zM791 212q41 12 67 42.5t26 66.5t-26 66.5t-67 43.5v-219zM724 95l44 17q12 -37 -7 -63q-22 -30 -86 -30h-93v46h93q43 0 49 12q2 3 2 10t-2 8zM512 -51q-38 0 -65.5 27t-27.5 65.5t27.5 66t65.5 27.5t65.5 -27.5t27.5 -66t-27.5 -65.5
t-65.5 -27zM512 -5q19 0 33 14t14 33t-14 32.5t-33 13.5t-33 -13.5t-14 -32.5t14 -33t33 -14v0z" />
    <glyph glyph-name="icon-test17" unicode="&#xe69b;" 
d="M512 105q-115 0 -197 82t-82 197t82 197t197 82t197 -82t82 -197t-82 -197t-197 -82zM512 151q96 0 164.5 68.5t68.5 164.5t-68.5 164.5t-164.5 68.5t-164.5 -68.5t-68.5 -164.5t68.5 -164.5t164.5 -68.5zM368 370q-7 5 -8.5 15.5t3.5 17.5t15.5 8.5t17.5 -4.5l93 -70
l139 140q7 7 16.5 7t16.5 -7t7 -16.5t-7 -15.5l-140 -140l-28 -28l-32 23l-93 70v0z" />
    <glyph glyph-name="icon-test18" unicode="&#xe69c;" 
d="M465.5 35q-125.5 0 -214 88.5t-88.5 214t88.5 214t214 88.5t214 -88.5t88.5 -214t-88.5 -214t-214 -88.5zM465.5 81q106.5 0 181 75t74.5 181.5t-74.5 181t-181 74.5t-181.5 -74.5t-75 -181t75 -181.5t181.5 -75zM465.5 268q-29.5 0 -49.5 20t-20 49.5t20 49.5t49.5 20
t49.5 -20t20 -49.5t-20 -49.5t-49.5 -20zM465 314q11 0 17.5 6.5t6.5 17t-6.5 17t-17 6.5t-17 -6.5t-6.5 -17.5q0 -10 7 -16.5t16 -6.5zM566 407q-3 3 -3 5q-1 0 -2 1t-2 1l7 96q-16 15 4 35l156 156q6 9 21 9q5 0 14 -5l26 -63q2 -2 2 -4q1 0 2 -1.5t3 -1.5l62 -25
q16 -15 -4 -35l-156 -156q-9 -9 -21 -9q-5 0 -14 4zM607 456l52 2h14l121 121l-19 7l-9 7l-3 3l-9 4l-5 10l-4 4l-5 10l-7 18l-121 -121v-14zM577 445l28 -38l-93 -70l-28 38l93 70v0z" />
  </font>
</defs>
</svg>
